<svg width="22" height="28" viewBox="0 0 22 28" fill="none" xmlns="http://www.w3.org/2000/svg">
<path d="M14.0022 6.53334C14.5179 7.04901 14.5179 7.88434 14.0022 8.40001C13.4864 8.91567 12.651 8.91567 12.1352 8.40001C12.1352 9.17327 11.5084 9.80001 10.735 9.80001C9.96161 9.80001 9.33478 9.17327 9.33478 8.40001C8.81904 8.91567 7.98357 8.91567 7.46783 8.40001C6.95208 7.88434 6.95208 7.04901 7.46783 6.53334C6.69444 6.53334 6.06761 5.90661 6.06761 5.13334C6.06761 4.36007 6.69444 3.73334 7.46783 3.73334C6.95208 3.21767 6.95208 2.38234 7.46783 1.86667C7.98357 1.35101 8.81904 1.35101 9.33478 1.86667C9.33478 1.09341 9.96161 0.466675 10.735 0.466675C11.5084 0.466675 12.1352 1.09341 12.1352 1.86667C12.651 1.35101 13.4864 1.35101 14.0022 1.86667C14.5179 2.38234 14.5179 3.21767 14.0022 3.73334C14.7756 3.73334 15.4024 4.36007 15.4024 5.13334C15.4024 5.90661 14.7756 6.53334 14.0022 6.53334Z" fill="#FF7BAC"/>
<path d="M7.46782 6.53334C10.0475 6.53334 12.1352 4.44594 12.1352 1.86667C12.651 1.351 13.4864 1.351 14.0022 1.86667C14.5179 2.38234 14.5179 3.21767 14.0022 3.73334C14.7756 3.73334 15.4024 4.36007 15.4024 5.13334C15.4024 5.9066 14.7756 6.53334 14.0022 6.53334C14.5179 7.049 14.5179 7.88434 14.0022 8.4C13.4864 8.91567 12.651 8.91567 12.1352 8.4C12.1352 9.17327 11.5084 9.8 10.735 9.8C9.96161 9.8 9.33478 9.17327 9.33478 8.4C8.81903 8.91567 7.98357 8.91567 7.46782 8.4C6.95207 7.88434 6.95207 7.049 7.46782 6.53334Z" fill="#FD58A1"/>
<path d="M10.735 21C9.18823 21 7.93457 22.2535 7.93457 23.8V27.5333H13.5354V23.8C13.5354 22.2535 12.2818 21 10.735 21Z" fill="#FFFDE9"/>
<path d="M7.93457 26.1333C9.48227 26.1333 10.735 23.8373 10.735 21C12.2818 21 13.5354 22.2535 13.5354 23.8V27.5333H7.93457V26.1333Z" fill="#ECECD8"/>
<path d="M10.735 21C7.64192 21 5.13412 18.4926 5.13412 15.4V12.6H16.3359V15.4C16.3359 18.4926 13.8281 21 10.735 21Z" fill="#FFFDE9"/>
<path d="M10.735 21C12.5408 21 14.0022 17.2428 14.0022 12.6H16.3359V15.4C16.3359 18.4926 13.8281 21 10.735 21Z" fill="#ECECD8"/>
<path d="M4.66739 19.5785V22.4215C4.66739 23.0818 5.33436 23.5331 5.94765 23.2881L9.33478 21.9333V20.0667L5.94765 18.7119C5.33436 18.4669 4.66739 18.9182 4.66739 19.5785Z" fill="#FF7BAC"/>
<path d="M16.8026 19.5785V22.4215C16.8026 23.0818 16.1356 23.5331 15.5223 23.2881L12.1352 21.9333V20.0667L15.5223 18.7119C16.1356 18.4669 16.8026 18.9182 16.8026 19.5785Z" fill="#FF7BAC"/>
<path d="M8.40131 10.7334C8.91706 11.249 8.91706 12.0844 8.40131 12.6C7.88556 13.1157 7.0501 13.1157 6.53435 12.6C6.53435 13.3733 5.90752 14 5.13413 14C4.36074 14 3.73391 13.3733 3.73391 12.6C3.21817 13.1157 2.3827 13.1157 1.86695 12.6C1.35121 12.0844 1.35121 11.249 1.86695 10.7334C1.09357 10.7334 0.466736 10.1066 0.466736 9.33335C0.466736 8.56009 1.09357 7.93335 1.86695 7.93335C1.35121 7.41769 1.35121 6.58235 1.86695 6.06669C2.3827 5.55102 3.21817 5.55102 3.73391 6.06669C3.73391 5.29342 4.36074 4.66669 5.13413 4.66669C5.90752 4.66669 6.53435 5.29342 6.53435 6.06669C7.0501 5.55102 7.88556 5.55102 8.40131 6.06669C8.91706 6.58235 8.91706 7.41769 8.40131 7.93335C9.1747 7.93335 9.80153 8.56009 9.80153 9.33335C9.80153 10.1066 9.1747 10.7334 8.40131 10.7334Z" fill="#96C6EE"/>
<path d="M19.603 10.7334C20.1188 11.249 20.1188 12.0843 19.603 12.6C19.0873 13.1157 18.2518 13.1157 17.7361 12.6C17.7361 13.3733 17.1093 14 16.3359 14C15.5625 14 14.9356 13.3733 14.9356 12.6C14.4199 13.1157 13.5844 13.1157 13.0687 12.6C12.5529 12.0843 12.5529 11.249 13.0687 10.7334C12.2953 10.7334 11.6685 10.1066 11.6685 9.33335C11.6685 8.56008 12.2953 7.93335 13.0687 7.93335C12.5529 7.41769 12.5529 6.58235 13.0687 6.06669C13.5844 5.55102 14.4199 5.55102 14.9356 6.06669C14.9356 5.29342 15.5625 4.66669 16.3359 4.66669C17.1093 4.66669 17.7361 5.29342 17.7361 6.06669C18.2518 5.55102 19.0873 5.55102 19.603 6.06669C20.1188 6.58235 20.1188 7.41769 19.603 7.93335C20.3764 7.93335 21.0033 8.56008 21.0033 9.33335C21.0033 10.1066 20.3764 10.7334 19.603 10.7334Z" fill="#96C6EE"/>
<path d="M10.735 6.06668C11.2505 6.06668 11.6685 5.64881 11.6685 5.13334C11.6685 4.61788 11.2505 4.20001 10.735 4.20001C10.2194 4.20001 9.80151 4.61788 9.80151 5.13334C9.80151 5.64881 10.2194 6.06668 10.735 6.06668Z" fill="#FFD18B"/>
<path d="M6.96515 20.3229L9.33478 21L6.96515 21.6771C6.51521 21.8055 6.06761 21.4676 6.06761 21C6.06761 20.5324 6.51521 20.1945 6.96515 20.3229Z" fill="#FD58A1"/>
<path d="M14.5049 20.3229L12.1352 21L14.5049 21.6771C14.9548 21.8055 15.4024 21.4676 15.4024 21C15.4024 20.5324 14.9548 20.1945 14.5049 20.3229Z" fill="#FD58A1"/>
<path d="M10.735 22.8667C11.7661 22.8667 12.602 22.031 12.602 21C12.602 19.9691 11.7661 19.1334 10.735 19.1334C9.70391 19.1334 8.86804 19.9691 8.86804 21C8.86804 22.031 9.70391 22.8667 10.735 22.8667Z" fill="#FF7BAC"/>
<path d="M10.735 19.1334C9.70351 19.1334 8.86804 19.9687 8.86804 21C8.86804 22.0314 9.70351 22.8667 10.735 22.8667C11.7665 22.8667 12.602 22.0314 12.602 21C12.602 19.9687 11.7665 19.1334 10.735 19.1334ZM10.2683 21.4667C9.75485 21.4667 9.33478 21.0467 9.33478 20.5334C9.33478 20.02 9.75485 19.6 10.2683 19.6C10.7817 19.6 11.2017 20.02 11.2017 20.5334C11.2017 21.0467 10.7817 21.4667 10.2683 21.4667Z" fill="#FD58A1"/>
<path d="M1.86696 10.7333C4.44662 10.7333 6.53434 8.64595 6.53434 6.06668C7.05009 5.55101 7.88555 5.55101 8.4013 6.06668C8.91704 6.58235 8.91704 7.41768 8.4013 7.93335C9.17468 7.93335 9.80151 8.56008 9.80151 9.33335C9.80151 10.1066 9.17468 10.7333 8.4013 10.7333C8.91704 11.249 8.91704 12.0843 8.4013 12.6C7.88555 13.1157 7.05009 13.1157 6.53434 12.6C6.53434 13.3733 5.90751 14 5.13413 14C4.36074 14 3.73391 13.3733 3.73391 12.6C3.21817 13.1157 2.3827 13.1157 1.86696 12.6C1.35121 12.0843 1.35121 11.249 1.86696 10.7333Z" fill="#29ABE2"/>
<path d="M13.0687 10.7333C15.6484 10.7333 17.7361 8.64595 17.7361 6.06668C18.2518 5.55101 19.0873 5.55101 19.603 6.06668C20.1188 6.58235 20.1188 7.41768 19.603 7.93335C20.3764 7.93335 21.0033 8.56008 21.0033 9.33335C21.0033 10.1066 20.3764 10.7333 19.603 10.7333C20.1188 11.249 20.1188 12.0843 19.603 12.6C19.0873 13.1157 18.2518 13.1157 17.7361 12.6C17.7361 13.3733 17.1093 14 16.3359 14C15.5625 14 14.9357 13.3733 14.9357 12.6C14.4199 13.1157 13.5844 13.1157 13.0687 12.6C12.5529 12.0843 12.5529 11.249 13.0687 10.7333Z" fill="#29ABE2"/>
<path d="M5.13413 10.2667C5.64968 10.2667 6.06761 9.84882 6.06761 9.33336C6.06761 8.81789 5.64968 8.40002 5.13413 8.40002C4.61859 8.40002 4.20065 8.81789 4.20065 9.33336C4.20065 9.84882 4.61859 10.2667 5.13413 10.2667Z" fill="#FFD18B"/>
<path d="M16.3359 10.2667C16.8514 10.2667 17.2693 9.84882 17.2693 9.33336C17.2693 8.81789 16.8514 8.40002 16.3359 8.40002C15.8203 8.40002 15.4024 8.81789 15.4024 9.33336C15.4024 9.84882 15.8203 10.2667 16.3359 10.2667Z" fill="#FFD18B"/>
<path d="M14.0022 14C14.5179 14.5157 14.5179 15.351 14.0022 15.8667C13.4864 16.3823 12.651 16.3823 12.1352 15.8667C12.1352 16.6399 11.5084 17.2667 10.735 17.2667C9.96161 17.2667 9.33478 16.6399 9.33478 15.8667C8.81904 16.3823 7.98357 16.3823 7.46783 15.8667C6.95208 15.351 6.95208 14.5157 7.46783 14C6.69444 14 6.06761 13.3733 6.06761 12.6C6.06761 11.8267 6.69444 11.2 7.46783 11.2C6.95208 10.6843 6.95208 9.84902 7.46783 9.33335C7.98357 8.81768 8.81904 8.81768 9.33478 9.33335C9.33478 8.56008 9.96161 7.93335 10.735 7.93335C11.5084 7.93335 12.1352 8.56008 12.1352 9.33335C12.651 8.81768 13.4864 8.81768 14.0022 9.33335C14.5179 9.84902 14.5179 10.6843 14.0022 11.2C14.7756 11.2 15.4024 11.8267 15.4024 12.6C15.4024 13.3733 14.7756 14 14.0022 14Z" fill="#FF7BAC"/>
<path d="M7.46782 14C10.0475 14 12.1352 11.9126 12.1352 9.33334C12.651 8.81768 13.4864 8.81768 14.0022 9.33334C14.5179 9.84901 14.5179 10.6843 14.0022 11.2C14.7756 11.2 15.4024 11.8267 15.4024 12.6C15.4024 13.3733 14.7756 14 14.0022 14C14.5179 14.5157 14.5179 15.351 14.0022 15.8667C13.4864 16.3823 12.651 16.3823 12.1352 15.8667C12.1352 16.6399 11.5084 17.2667 10.735 17.2667C9.96161 17.2667 9.33478 16.6399 9.33478 15.8667C8.81903 16.3823 7.98357 16.3823 7.46782 15.8667C6.95207 15.351 6.95207 14.5157 7.46782 14Z" fill="#FD58A1"/>
<path d="M10.735 13.5333C11.2505 13.5333 11.6685 13.1155 11.6685 12.6C11.6685 12.0846 11.2505 11.6667 10.735 11.6667C10.2194 11.6667 9.80151 12.0846 9.80151 12.6C9.80151 13.1155 10.2194 13.5333 10.735 13.5333Z" fill="#FFD18B"/>
<path d="M6.53435 9.33335C6.53435 8.56148 5.90612 7.93335 5.13413 7.93335C4.36215 7.93335 3.73392 8.56148 3.73392 9.33335C3.73392 10.1052 4.36215 10.7333 5.13413 10.7333C5.90612 10.7333 6.53435 10.1052 6.53435 9.33335ZM4.66739 9.33335C4.66739 9.07575 4.87649 8.86668 5.13413 8.86668C5.39177 8.86668 5.60087 9.07575 5.60087 9.33335C5.60087 9.59095 5.39177 9.80001 5.13413 9.80001C4.87649 9.80001 4.66739 9.59095 4.66739 9.33335Z" fill="#272A56"/>
<path d="M21.47 9.33333C21.47 8.56753 21.0065 7.90767 20.3452 7.62067C20.579 6.98647 20.4418 6.2454 19.933 5.73673C19.4243 5.22807 18.6831 5.08993 18.0488 5.32467C17.7618 4.6634 17.1018 4.2 16.3359 4.2C16.1058 4.2 15.8869 4.2462 15.6829 4.32273C15.4883 3.92093 15.1546 3.59893 14.7438 3.42067C14.9777 2.78647 14.8404 2.0454 14.3317 1.53673C13.8229 1.02807 13.0822 0.889933 12.4479 1.12467C12.1609 0.4634 11.5009 0 10.735 0C9.96908 0 9.30911 0.4634 9.02207 1.12467C8.38684 0.889933 7.64612 1.02807 7.13784 1.53673C6.6291 2.0454 6.49187 2.78647 6.72571 3.42067C6.31498 3.59893 5.98126 3.92093 5.78663 4.32273C5.58313 4.2462 5.36423 4.2 5.13413 4.2C4.36821 4.2 3.70824 4.6634 3.4212 5.32467C2.78597 5.08993 2.04525 5.22807 1.53697 5.73673C1.02823 6.2454 0.891005 6.98647 1.12484 7.62067C0.463472 7.90767 0 8.56753 0 9.33333C0 10.0991 0.463472 10.759 1.12484 11.046C0.891005 11.6802 1.02823 12.4213 1.53697 12.9299C2.04525 13.4381 2.78597 13.5758 3.4212 13.342C3.64757 13.8637 4.10777 14.2581 4.66739 14.4032V15.4C4.66739 16.3959 4.9059 17.3483 5.3577 18.2079C5.16727 18.242 4.98151 18.3073 4.81628 18.4193C4.43029 18.6797 4.20065 19.1133 4.20065 19.5785V22.4215C4.20065 22.8867 4.43029 23.3203 4.81581 23.5807C5.20087 23.8415 5.68862 23.8943 6.12082 23.7216L7.53924 23.1541C7.4963 23.3665 7.46783 23.5816 7.46783 23.8V27.5333C7.46783 27.7914 7.67646 28 7.93457 28H13.5354C13.7935 28 14.0022 27.7914 14.0022 27.5333V23.8C14.0022 23.5816 13.9737 23.3665 13.9308 23.1541L15.3492 23.7216C15.7814 23.8943 16.2691 23.8415 16.6542 23.5807C17.0397 23.3203 17.2693 22.8867 17.2693 22.4215V19.5785C17.2693 19.1133 17.0397 18.6797 16.6542 18.4193C16.489 18.3073 16.3032 18.242 16.1128 18.2079C16.5641 17.3483 16.8026 16.3959 16.8026 15.4V14.4032C17.3622 14.2581 17.8224 13.8637 18.0488 13.342C18.6831 13.5758 19.4243 13.4381 19.933 12.9299C20.4418 12.4213 20.579 11.6802 20.3452 11.046C21.0065 10.759 21.47 10.0991 21.47 9.33333ZM7.46783 4.2C7.65639 4.2 7.82722 4.0866 7.89909 3.91207C7.97144 3.73753 7.9313 3.53687 7.79781 3.4034C7.46503 3.07067 7.46503 2.52933 7.79781 2.1966C8.1306 1.86387 8.67201 1.86387 9.0048 2.1966C9.13875 2.33053 9.33945 2.37113 9.51354 2.29787C9.6881 2.226 9.80152 2.0552 9.80152 1.86667C9.80152 1.35193 10.2202 0.933333 10.735 0.933333C11.2498 0.933333 11.6685 1.35193 11.6685 1.86667C11.6685 2.0552 11.7819 2.226 11.9565 2.29787C12.131 2.37067 12.3317 2.33053 12.4652 2.1966C12.798 1.86387 13.3394 1.86387 13.6722 2.1966C14.005 2.52933 14.005 3.07067 13.6722 3.4034C13.5387 3.53687 13.4986 3.73753 13.5709 3.91207C13.6428 4.0866 13.8136 4.2 14.0022 4.2C14.4288 4.2 14.7854 4.48933 14.8964 4.8804C14.7858 5.01433 14.6929 5.1632 14.6229 5.32467C13.9877 5.08993 13.247 5.22807 12.7387 5.73673C12.23 6.2454 12.0927 6.98647 12.3266 7.62067C12.174 7.68693 12.0349 7.7798 11.9042 7.8848C11.5835 7.62533 11.1784 7.46667 10.735 7.46667C10.2916 7.46667 9.88647 7.62533 9.56582 7.8848C9.43513 7.7798 9.29604 7.68693 9.14342 7.62067C9.37726 6.98647 9.24004 6.2454 8.73129 5.73673C8.22254 5.22807 7.48136 5.08993 6.84706 5.32467C6.77705 5.1632 6.68417 5.01433 6.57355 4.8804C6.68464 4.48933 7.04123 4.2 7.46783 4.2ZM13.5709 11.3787C13.6428 11.5533 13.8136 11.6667 14.0022 11.6667C14.517 11.6667 14.9357 12.0853 14.9357 12.6C14.9357 13.1147 14.517 13.5333 14.0022 13.5333C13.8136 13.5333 13.6428 13.6467 13.5709 13.8213C13.4986 13.9958 13.5387 14.1965 13.6722 14.3299C14.005 14.6627 14.005 15.204 13.6722 15.5367C13.3394 15.8695 12.798 15.8695 12.4652 15.5367C12.3317 15.4033 12.1315 15.3631 11.9565 15.4355C11.7819 15.5073 11.6685 15.6781 11.6685 15.8667C11.6685 16.3814 11.2498 16.8 10.735 16.8C10.2202 16.8 9.80152 16.3814 9.80152 15.8667C9.80152 15.6781 9.6881 15.5073 9.51354 15.4355C9.45567 15.4112 9.39499 15.4 9.33478 15.4C9.21343 15.4 9.09395 15.4476 9.0048 15.5367C8.67201 15.8695 8.1306 15.8695 7.79781 15.5367C7.46503 15.204 7.46503 14.6627 7.79781 14.3299C7.9313 14.1965 7.97144 13.9958 7.89909 13.8213C7.82722 13.6467 7.65639 13.5333 7.46783 13.5333C6.95301 13.5333 6.53435 13.1147 6.53435 12.6C6.53435 12.0853 6.95301 11.6667 7.46783 11.6667C7.65639 11.6667 7.82722 11.5533 7.89909 11.3787C7.97144 11.2042 7.9313 11.0035 7.79781 10.8701C7.46503 10.5373 7.46503 9.996 7.79781 9.66327C8.1306 9.33053 8.67201 9.33053 9.0048 9.66327C9.13875 9.7972 9.33945 9.8378 9.51354 9.76453C9.6881 9.69267 9.80152 9.52187 9.80152 9.33333C9.80152 8.8186 10.2202 8.4 10.735 8.4C11.2498 8.4 11.6685 8.8186 11.6685 9.33333C11.6685 9.52187 11.7819 9.69267 11.9565 9.76453C12.131 9.83733 12.3317 9.7972 12.4652 9.66327C12.798 9.33053 13.3394 9.33053 13.6722 9.66327C14.005 9.996 14.005 10.5373 13.6722 10.8701C13.5387 11.0035 13.4986 11.2042 13.5709 11.3787ZM15.1723 14.0509C15.3781 14.2156 15.6148 14.3346 15.8691 14.4004V15.4C15.8691 16.5275 15.5102 17.5901 14.8353 18.4837L12.4545 19.4362C12.0274 18.9667 11.4183 18.6667 10.735 18.6667C10.0517 18.6667 9.4426 18.9667 9.01507 19.4362L6.63423 18.4837C5.95979 17.5901 5.60087 16.5275 5.60087 15.4V14.4004C5.85524 14.3341 6.09141 14.2156 6.29771 14.0509C6.42793 14.1559 6.57075 14.2455 6.72571 14.3127C6.49187 14.9469 6.6291 15.6879 7.13784 16.1966C7.64612 16.7048 8.38684 16.8429 9.02207 16.6087C9.30911 17.2699 9.96908 17.7333 10.735 17.7333C11.5009 17.7333 12.1609 17.2699 12.4479 16.6087C13.0822 16.8429 13.8234 16.7048 14.3322 16.1966C14.8409 15.6879 14.9781 14.9469 14.7443 14.3127C14.8992 14.2455 15.0425 14.1559 15.1723 14.0509ZM9.33478 21C9.33478 20.2281 9.96301 19.6 10.735 19.6C11.507 19.6 12.1352 20.2281 12.1352 21C12.1352 21.7719 11.507 22.4 10.735 22.4C9.96301 22.4 9.33478 21.7719 9.33478 21ZM4.20065 12.6C4.20065 12.4115 4.08723 12.2407 3.91267 12.1688C3.73811 12.096 3.53742 12.1366 3.40393 12.2701C3.07114 12.6028 2.52973 12.6028 2.19694 12.2701C1.86416 11.9373 1.86416 11.396 2.19694 11.0633C2.33043 10.9298 2.37057 10.7291 2.29822 10.5546C2.22635 10.3801 2.05552 10.2667 1.86696 10.2667C1.35214 10.2667 0.933478 9.84807 0.933478 9.33333C0.933478 8.8186 1.35214 8.4 1.86696 8.4C2.05552 8.4 2.22635 8.2866 2.29822 8.11207C2.37057 7.93753 2.33043 7.73687 2.19694 7.6034C1.86416 7.27067 1.86416 6.72933 2.19694 6.3966C2.52973 6.06387 3.07114 6.06387 3.40393 6.3966C3.53788 6.53007 3.73858 6.57067 3.91267 6.49787C4.08723 6.426 4.20065 6.2552 4.20065 6.06667C4.20065 5.55193 4.61932 5.13333 5.13413 5.13333C5.64894 5.13333 6.06761 5.55193 6.06761 6.06667C6.06761 6.2552 6.18103 6.426 6.35559 6.49787C6.53015 6.57067 6.73038 6.53007 6.86433 6.3966C7.19712 6.06387 7.73853 6.06387 8.07132 6.3966C8.40411 6.72933 8.40411 7.27067 8.07132 7.6034C7.93783 7.73687 7.89769 7.93753 7.97004 8.11207C8.04192 8.2866 8.21274 8.4 8.4013 8.4C8.58893 8.4 8.76909 8.45927 8.92218 8.5624C8.31029 8.3762 7.61998 8.52087 7.13784 9.0034C6.6291 9.51207 6.49187 10.2531 6.72571 10.8873C6.06434 11.1743 5.60087 11.8342 5.60087 12.6C5.60087 12.8487 5.65408 13.0839 5.74276 13.3009C5.5738 13.4475 5.35957 13.5333 5.13413 13.5333C4.61932 13.5333 4.20065 13.1147 4.20065 12.6ZM5.7745 22.855C5.62841 22.9133 5.46972 22.8965 5.33903 22.8079C5.20881 22.7201 5.13413 22.5787 5.13413 22.4215V19.5785C5.13413 19.4213 5.20881 19.2799 5.33903 19.1921C5.46925 19.1039 5.62794 19.0867 5.7745 19.145L8.53619 20.2496C8.45498 20.4867 8.4013 20.7363 8.4013 21C8.4013 21.2637 8.45498 21.5133 8.53619 21.7499L5.7745 22.855ZM13.0687 23.8V27.0667H8.4013V23.8C8.4013 23.4136 8.50025 23.0347 8.68182 22.6973L9.01507 22.5638C9.4426 23.0333 10.0517 23.3333 10.735 23.3333C11.4183 23.3333 12.0274 23.0333 12.4549 22.5638L12.7882 22.6973C12.9697 23.0347 13.0687 23.4136 13.0687 23.8ZM16.3359 19.5785V22.4215C16.3359 22.5787 16.2612 22.7201 16.131 22.8079C16.0008 22.8961 15.8421 22.9133 15.6955 22.855L12.9338 21.7504C13.015 21.5133 13.0687 21.2637 13.0687 21C13.0687 20.7363 13.015 20.4867 12.9338 20.2501L15.6955 19.1455C15.8416 19.0871 16.0003 19.1039 16.131 19.1926C16.2612 19.2799 16.3359 19.4213 16.3359 19.5785ZM19.603 10.2667C19.4145 10.2667 19.2437 10.3801 19.1718 10.5546C19.0994 10.7291 19.1396 10.9298 19.2731 11.0633C19.6058 11.396 19.6058 11.9373 19.2731 12.2701C18.9403 12.6028 18.3989 12.6028 18.0661 12.2701C17.9331 12.1366 17.7324 12.096 17.5573 12.1688C17.3828 12.2407 17.2693 12.4115 17.2693 12.6C17.2693 13.1147 16.8507 13.5333 16.3359 13.5333C16.1104 13.5333 15.8962 13.4475 15.7272 13.3009C15.8159 13.0839 15.8691 12.8487 15.8691 12.6C15.8691 11.8342 15.4057 11.1743 14.7443 10.8873C14.9781 10.2531 14.8409 9.51207 14.3322 9.0034C13.8496 8.52087 13.1592 8.3762 12.5478 8.5624C12.7009 8.45927 12.8811 8.4 13.0687 8.4C13.2573 8.4 13.4281 8.2866 13.5 8.11207C13.5723 7.93753 13.5322 7.73687 13.3987 7.6034C13.0659 7.27067 13.0659 6.72933 13.3987 6.3966C13.7315 6.06387 14.2729 6.06387 14.6057 6.3966C14.7396 6.53007 14.9399 6.57067 15.1144 6.49787C15.289 6.426 15.4024 6.2552 15.4024 6.06667C15.4024 5.55193 15.8211 5.13333 16.3359 5.13333C16.8507 5.13333 17.2693 5.55193 17.2693 6.06667C17.2693 6.2552 17.3828 6.426 17.5573 6.49787C17.7319 6.57067 17.9326 6.53007 18.0661 6.3966C18.3989 6.06387 18.9403 6.06387 19.2731 6.3966C19.6058 6.72933 19.6058 7.27067 19.2731 7.6034C19.1396 7.73687 19.0994 7.93753 19.1718 8.11207C19.2437 8.2866 19.4145 8.4 19.603 8.4C20.1179 8.4 20.5365 8.8186 20.5365 9.33333C20.5365 9.84807 20.1179 10.2667 19.603 10.2667Z" fill="#272A56"/>
<path d="M16.3359 7.93335C15.5639 7.93335 14.9357 8.56148 14.9357 9.33335C14.9357 10.1052 15.5639 10.7333 16.3359 10.7333C17.1079 10.7333 17.7361 10.1052 17.7361 9.33335C17.7361 8.56148 17.1079 7.93335 16.3359 7.93335ZM16.3359 9.80001C16.0782 9.80001 15.8691 9.59095 15.8691 9.33335C15.8691 9.07575 16.0782 8.86668 16.3359 8.86668C16.5935 8.86668 16.8026 9.07575 16.8026 9.33335C16.8026 9.59095 16.5935 9.80001 16.3359 9.80001Z" fill="#272A56"/>
<path d="M10.735 11.2C9.96301 11.2 9.33478 11.8281 9.33478 12.6C9.33478 13.3719 9.96301 14 10.735 14C11.507 14 12.1352 13.3719 12.1352 12.6C12.1352 11.8281 11.507 11.2 10.735 11.2ZM10.735 13.0667C10.4774 13.0667 10.2683 12.8576 10.2683 12.6C10.2683 12.3424 10.4774 12.1333 10.735 12.1333C10.9926 12.1333 11.2017 12.3424 11.2017 12.6C11.2017 12.8576 10.9926 13.0667 10.735 13.0667Z" fill="#272A56"/>
<path d="M10.735 6.53334C11.507 6.53334 12.1352 5.9052 12.1352 5.13334C12.1352 4.36147 11.507 3.73334 10.735 3.73334C9.96301 3.73334 9.33478 4.36147 9.33478 5.13334C9.33478 5.9052 9.96301 6.53334 10.735 6.53334ZM10.735 4.66667C10.9926 4.66667 11.2017 4.87574 11.2017 5.13334C11.2017 5.39094 10.9926 5.6 10.735 5.6C10.4774 5.6 10.2683 5.39094 10.2683 5.13334C10.2683 4.87574 10.4774 4.66667 10.735 4.66667Z" fill="#272A56"/>
</svg>
