<svg width="69" height="60" viewBox="0 0 69 60" fill="none" xmlns="http://www.w3.org/2000/svg">
<g clip-path="url(#clip0_40_5)">
<path d="M63.6094 -0.00012207H5.39062C2.41212 -0.00012207 0 2.09988 0 4.68738V55.3124C0 57.9024 2.415 59.9999 5.39062 59.9999H63.6094C66.5879 59.9999 69 57.8999 69 55.3124V4.68738C69 2.09738 66.585 -0.00012207 63.6094 -0.00012207ZM34.5 46.8749C32.8009 46.8749 31.1362 46.7724 29.5205 46.5749C27.9047 47.5649 18.5581 53.2724 17.6755 53.3799C17.6755 53.3799 17.3161 53.5024 17.0085 53.3449C16.7009 53.1874 16.7555 52.7724 16.7555 52.7724C16.8475 52.2224 19.1791 45.2274 19.6075 43.9399C11.7156 40.5399 6.46875 34.5174 6.46875 27.6574C6.46875 17.0424 19.0181 8.43738 34.5 8.43738C49.9819 8.43738 62.5312 17.0424 62.5312 27.6574C62.5312 38.2699 49.9819 46.8749 34.5 46.8749ZM23.1438 24.6674H20.6195V33.0224C20.6195 33.7624 19.895 34.3649 19.0009 34.3649C18.1068 34.3649 17.3851 33.7649 17.3851 33.0224V24.6674H14.8609C14.4613 24.6417 14.0877 24.4856 13.815 24.2303C13.5423 23.975 13.3908 23.6395 13.3908 23.2911C13.3908 22.9427 13.5423 22.6072 13.815 22.352C14.0877 22.0967 14.4613 21.9405 14.8609 21.9149H23.1409C23.5404 21.9405 23.9141 22.0967 24.1867 22.352C24.4594 22.6072 24.611 22.9427 24.611 23.2911C24.611 23.6395 24.4594 23.975 24.1867 24.2303C23.9141 24.4856 23.5404 24.6417 23.1409 24.6674H23.1438ZM54.7314 32.0599C54.8605 32.2069 54.9547 32.3748 55.0085 32.5538C55.0623 32.7327 55.0746 32.9192 55.0448 33.1024C55.0152 33.2851 54.9444 33.4609 54.8363 33.6196C54.7282 33.7784 54.5851 33.917 54.4151 34.0274C54.1359 34.2124 53.7945 34.3126 53.4434 34.3124C53.1924 34.3135 52.9446 34.2635 52.7199 34.1662C52.4952 34.069 52.2999 33.9272 52.1496 33.7524L48.3575 29.3849L47.7969 29.8724V32.9399C47.7961 33.3125 47.6257 33.6698 47.323 33.9335C47.0202 34.1973 46.6097 34.3461 46.1811 34.3474C45.7518 34.3474 45.3401 34.1991 45.0366 33.9351C44.733 33.6712 44.5625 33.3132 44.5625 32.9399V23.3199C44.5801 22.9572 44.7582 22.6144 45.0595 22.3632C45.3609 22.1119 45.7622 21.9717 46.1797 21.9717C46.5972 21.9717 46.9985 22.1119 47.2999 22.3632C47.6012 22.6144 47.7793 22.9572 47.7969 23.3199V26.3449L52.3106 22.4199C52.4284 22.3187 52.5681 22.2388 52.7215 22.1848C52.875 22.1307 53.0392 22.1036 53.2048 22.1049C53.6073 22.1049 54.0155 22.2574 54.3202 22.5224C54.5977 22.7589 54.7664 23.0754 54.7946 23.4124C54.8095 23.5692 54.7854 23.727 54.7239 23.8749C54.6624 24.0229 54.5649 24.1576 54.4381 24.2699L50.7524 27.4724L54.7342 32.0599H54.7314ZM30.7251 23.3049C30.452 22.6299 29.624 21.9349 28.5689 21.9149C27.5166 21.9349 26.6886 22.6299 26.4155 23.3024L22.5486 32.1549C22.057 33.4799 22.4854 33.9749 22.931 34.1549C23.2532 34.2824 23.6033 34.3481 23.9574 34.3474C24.633 34.3474 25.1476 34.1099 25.3029 33.7274L26.105 31.9024H31.0356L31.8378 33.7274C31.993 34.1099 32.5076 34.3474 33.1833 34.3474C33.5375 34.3471 33.8875 34.2806 34.2096 34.1524C34.6553 33.9749 35.0836 33.4824 34.592 32.1524L30.7251 23.3024V23.3049ZM26.956 29.4124L28.5717 25.4224L30.1846 29.4124H26.956ZM43.9329 32.8699C43.9238 33.2196 43.7555 33.5518 43.465 33.7937C43.1744 34.0355 42.7854 34.1673 42.3832 34.1599H37.1968C36.9974 34.1639 36.7991 34.1337 36.6132 34.071C36.4272 34.0083 36.2573 33.9144 36.1131 33.7946C35.969 33.6748 35.8534 33.5315 35.7729 33.3728C35.6924 33.2141 35.6487 33.0432 35.6442 32.8699V23.3199C35.6442 22.5449 36.386 21.9149 37.2974 21.9149C38.2087 21.9149 38.9476 22.5449 38.9476 23.3199V31.5824H42.3832C43.2371 31.5824 43.9357 32.1599 43.9357 32.8699H43.9329Z" fill="#F6F6F6"/>
</g>
<defs>
<clipPath id="clip0_40_5">
<rect width="69" height="60" fill="white" transform="translate(0 -0.00012207)"/>
</clipPath>
</defs>
</svg>
