<svg width="28" height="28" viewBox="0 0 28 28" fill="none" xmlns="http://www.w3.org/2000/svg">
<path d="M15.041 2.276C14.2949 2.276 13.6801 2.83682 13.5942 3.5599C13.5084 2.83682 12.8936 2.276 12.1474 2.276C11.3425 2.276 10.6899 2.92859 10.6899 3.73348C10.6899 5.26659 13.5941 6.97235 13.5941 6.97235H13.5944C13.5944 6.97235 16.4986 5.26653 16.4986 3.73348C16.4985 2.92848 15.846 2.276 15.041 2.276Z" fill="#EF584F"/>
<path d="M23.5407 10.1124C23.491 9.17848 22.7391 8.41647 21.8059 8.35522C21.4824 8.33394 21.1752 8.39547 20.9033 8.52048C20.5177 8.69778 20.0698 8.69778 19.6843 8.52048C19.4125 8.39552 19.1055 8.33411 18.7823 8.35516C17.8441 8.41641 17.09 9.18597 17.0461 10.125C17.0293 10.4875 17.116 10.8284 17.2793 11.1208C17.9784 12.3731 18.3554 12.4248 18.7642 13.7995L18.7869 13.8755C19.6905 13.8755 21.0273 13.8755 21.9309 13.8755C21.9312 13.8753 21.9314 13.8752 21.9317 13.8749C22.3358 12.4835 22.628 12.3751 23.3192 11.1012C23.4772 10.8099 23.5599 10.4715 23.5407 10.1124Z" fill="#EFEFEF"/>
<path d="M20.3856 13.8756H20.2019C16.4117 13.8756 13.3392 16.9481 13.3392 20.7383V27.2541H27.2484V20.7383C27.2483 16.9482 24.1758 13.8756 20.3856 13.8756Z" fill="#EFEFEF"/>
<path d="M8.31824 8.14502H3.4778C2.27943 8.14502 1.30796 9.11649 1.30796 10.3149L0.751572 18.2153H2.69888V27.451H9.0971V18.2153H11.0444L10.488 10.3149C10.4881 9.11649 9.51661 8.14502 8.31824 8.14502Z" fill="#75706B"/>
<path d="M7.15038 6.77441H4.6458V9.27899H7.15038V6.77441Z" fill="#EFEFEF"/>
<path d="M4.64575 9.2788L1.91477 9.96157C1.77537 9.99641 1.64029 9.89097 1.64029 9.74731V6.30582C1.64029 6.1621 1.77537 6.05667 1.91477 6.09156L4.64575 6.77433V9.2788Z" fill="#EFEFEF"/>
<path d="M7.15033 9.2788L9.88132 9.96157C10.0207 9.99641 10.1558 9.89097 10.1558 9.74731V6.30582C10.1558 6.1621 10.0207 6.05667 9.88132 6.09156L7.15033 6.77433V9.2788Z" fill="#EFEFEF"/>
<path d="M13.4962 7.44576C13.5805 7.49526 13.6768 7.52134 13.7746 7.52134C13.8723 7.52134 13.9683 7.4952 14.0526 7.44576C14.3776 7.2548 17.2277 5.52891 17.2277 3.73347C17.2277 2.62708 16.3276 1.72693 15.2213 1.72693C14.6567 1.72693 14.1414 1.96165 13.7744 2.34331C13.4074 1.9617 12.8922 1.72693 12.3275 1.72693C11.2211 1.72693 10.321 2.62708 10.321 3.73347C10.321 5.52891 13.1712 7.25485 13.4962 7.44576ZM12.3275 2.82494C12.7875 2.82494 13.1751 3.16876 13.2292 3.62453C13.262 3.90076 13.4961 4.10884 13.7744 4.10884C14.0525 4.10884 14.2868 3.90081 14.3196 3.62458C14.3738 3.16866 14.7615 2.82494 15.2213 2.82494C15.7222 2.82494 16.1297 3.23253 16.1297 3.73347C16.1297 4.50237 14.8334 5.64649 13.7751 6.32719C12.8616 5.73503 11.4191 4.56384 11.4191 3.73347C11.4191 3.23253 11.8266 2.82494 12.3275 2.82494Z" fill="#231F20"/>
<path d="M6.07827 5.46705C7.58557 5.46705 8.81177 4.2408 8.81177 2.73355C8.81177 1.22631 7.58557 0 6.07827 0C4.57098 0 3.34477 1.22626 3.34477 2.7335C3.34477 4.24074 4.57098 5.46705 6.07827 5.46705ZM6.07827 1.09802C6.98007 1.09802 7.71376 1.83165 7.71376 2.7335C7.71376 3.63535 6.98007 4.36898 6.07827 4.36898C5.17648 4.36898 4.44279 3.63535 4.44279 2.7335C4.44279 1.83165 5.17648 1.09802 6.07827 1.09802Z" fill="#231F20"/>
<path d="M20.4739 6.85801C21.6204 6.85801 22.553 5.92537 22.553 4.77895C22.553 3.63254 21.6204 2.69995 20.4739 2.69995C19.3275 2.69995 18.3949 3.63259 18.3949 4.77901C18.3949 5.92542 19.3275 6.85801 20.4739 6.85801ZM20.4739 3.79797C21.0149 3.79797 21.4549 4.23804 21.4549 4.77895C21.4549 5.31987 21.0149 5.75994 20.4739 5.75994C19.933 5.75994 19.493 5.31987 19.493 4.77895C19.493 4.23804 19.933 3.79797 20.4739 3.79797Z" fill="#231F20"/>
<path d="M22.7545 13.6565C22.9546 13.0592 23.1331 12.7744 23.4011 12.3469C23.5646 12.0862 23.7498 11.7907 23.9818 11.3631C24.1935 10.9729 24.2929 10.5303 24.2692 10.0832C24.2692 10.0832 24.2692 10.0832 24.2691 10.0831C24.2042 8.86551 23.2382 7.88715 22.0219 7.80736C21.6198 7.78095 21.2162 7.855 20.854 8.02157C20.6125 8.13264 20.3353 8.13264 20.0937 8.02157C19.7316 7.85516 19.3282 7.781 18.9265 7.80731C17.7017 7.88732 16.735 8.87268 16.6778 10.0995C16.6568 10.5511 16.7612 10.9968 16.9799 11.3885C17.254 11.8793 17.4876 12.2047 17.6753 12.4662C17.9345 12.8273 18.1197 13.0863 18.3095 13.6219C15.2282 14.5207 12.9703 17.3707 12.9703 20.7384V27.2542C12.9703 27.5574 13.2162 27.8033 13.5193 27.8033H27.4286C27.7318 27.8033 27.9776 27.5574 27.9776 27.2542V20.7383C27.9776 17.413 25.7763 14.5923 22.7545 13.6565ZM19.3696 13.3265C19.1182 12.5931 18.8605 12.234 18.5674 11.8259C18.387 11.5745 18.1824 11.2895 17.9388 10.8532C17.82 10.6404 17.7633 10.3974 17.7748 10.1506C17.8054 9.49382 18.3429 8.94585 18.9983 8.90297C19.2213 8.88854 19.4357 8.92758 19.6352 9.01924C20.1684 9.26435 20.7799 9.26446 21.313 9.01918C21.5125 8.92742 21.7268 8.88832 21.9503 8.90303C22.6011 8.94568 23.1382 9.48977 23.1728 10.1415H23.1729C23.1858 10.3861 23.1319 10.6275 23.0169 10.8395C22.8012 11.2368 22.6257 11.5167 22.4709 11.7637C22.176 12.2341 21.9513 12.5925 21.7072 13.3266H20.5658H20.3821H19.3696V13.3265ZM26.8796 26.7052H24.0426V23.2089C24.0426 22.9057 23.7967 22.6599 23.4936 22.6599C23.1904 22.6599 22.9446 22.9058 22.9446 23.2089V26.7052H18.0034V23.2089C18.0034 22.9057 17.7575 22.6599 17.4544 22.6599C17.1512 22.6599 16.9054 22.9058 16.9054 23.2089V26.7052H14.0684V20.7383C14.0684 18.3645 15.3854 16.2928 17.3268 15.2147C17.0582 15.7158 16.9054 16.2879 16.9054 16.8951C16.9054 17.1983 17.1512 17.4441 17.4544 17.4441C17.7576 17.4441 18.0034 17.1982 18.0034 16.8951C18.0034 15.5329 19.1117 14.4246 20.4739 14.4246C21.8362 14.4246 22.9445 15.5329 22.9445 16.8951C22.9445 17.1983 23.1904 17.4441 23.4935 17.4441C23.7967 17.4441 24.0425 17.1982 24.0425 16.8951C24.0425 16.2879 23.8897 15.7158 23.621 15.2147C25.5625 16.2928 26.8795 18.3645 26.8795 20.7383L26.8796 26.7052Z" fill="#231F20"/>
<path d="M11.2173 10.2944C11.2139 9.83141 11.0933 9.39621 10.885 9.01547V6.30576C10.885 6.06694 10.777 5.84573 10.5887 5.69884C10.4006 5.552 10.1598 5.50098 9.92834 5.55889L7.26297 6.22526H4.89353L2.22833 5.55895C1.99673 5.50087 1.75594 5.552 1.56776 5.69884C1.37953 5.84573 1.27152 6.06694 1.27152 6.30576V9.01553C1.06327 9.39626 0.942686 9.83146 0.93924 10.2944L0.384162 18.1767C0.373498 18.3286 0.426381 18.4782 0.530178 18.5896C0.633975 18.701 0.779498 18.7643 0.931803 18.7643H2.33011V27.4509C2.33011 27.7541 2.57598 27.9999 2.87912 27.9999H9.27733C9.58052 27.9999 9.82634 27.754 9.82634 27.4509V18.7643H11.2246C11.377 18.7643 11.5224 18.701 11.6263 18.5896C11.7301 18.4782 11.783 18.3286 11.7723 18.1767L11.2173 10.2944ZM7.87958 7.20291L9.78697 6.72603V9.32697L7.87958 8.8501V7.20291ZM6.78151 8.72978H5.375V7.32333H6.78151C6.78151 7.32328 6.78151 8.72978 6.78151 8.72978ZM2.36954 6.72603L4.27693 7.20291V8.85015L2.36954 9.32702V6.72603ZM9.27739 17.6663C8.9742 17.6663 8.72838 17.9121 8.72838 18.2153V26.9019H6.62729V19.4498C6.62729 19.1466 6.38141 18.9008 6.07828 18.9008C5.77509 18.9008 5.52927 19.1467 5.52927 19.4498V26.9019H3.42812V18.2153C3.42812 17.9121 3.18225 17.6663 2.87912 17.6663H1.52084L2.02435 10.5168C2.02944 10.5169 2.03458 10.5175 2.03966 10.5175C2.10233 10.5175 2.16555 10.5098 2.22812 10.4941L4.89347 9.82769H7.26292L9.92828 10.4941C9.99084 10.5098 10.0541 10.5175 10.1167 10.5175C10.1218 10.5175 10.127 10.5169 10.132 10.5168L10.6356 17.6663H9.27739Z" fill="#231F20"/>
<path d="M23.4936 19.5679C23.1904 19.5679 22.9446 19.8137 22.9446 20.1169V20.2267C22.9446 20.5299 23.1904 20.7757 23.4936 20.7757C23.7968 20.7757 24.0426 20.5298 24.0426 20.2267V20.1169C24.0426 19.8137 23.7968 19.5679 23.4936 19.5679Z" fill="#231F20"/>
<path d="M6.07823 15.4146C5.93385 15.4146 5.79221 15.4732 5.69006 15.5754C5.58801 15.6775 5.52922 15.8191 5.52922 15.9636C5.52922 16.108 5.58796 16.2496 5.69006 16.3517C5.79216 16.4538 5.9338 16.5126 6.07823 16.5126C6.22315 16.5126 6.36424 16.4538 6.4664 16.3517C6.56845 16.2496 6.62724 16.108 6.62724 15.9636C6.62724 15.8191 6.5685 15.6775 6.4664 15.5754C6.36424 15.4732 6.2231 15.4146 6.07823 15.4146Z" fill="#231F20"/>
<path d="M6.07823 13.0537C5.77515 13.0537 5.52922 13.2996 5.52922 13.6027C5.52922 13.9058 5.77521 14.1517 6.07823 14.1517C6.38131 14.1517 6.62724 13.9057 6.62724 13.6027C6.62724 13.2996 6.38125 13.0537 6.07823 13.0537Z" fill="#231F20"/>
<path d="M6.07823 10.693C5.93385 10.693 5.79221 10.7517 5.69006 10.8538C5.58801 10.9559 5.52922 11.0976 5.52922 11.242C5.52922 11.3864 5.58796 11.528 5.69006 11.6301C5.79216 11.7322 5.9338 11.791 6.07823 11.791C6.22266 11.791 6.36424 11.7323 6.4664 11.6301C6.56845 11.5281 6.62724 11.3864 6.62724 11.242C6.62724 11.0976 6.5685 10.956 6.4664 10.8538C6.36424 10.7517 6.2231 10.693 6.07823 10.693Z" fill="#231F20"/>
</svg>
