<svg width="60" height="80" viewBox="0 0 60 80" fill="none" xmlns="http://www.w3.org/2000/svg">
<path d="M12.4703 66.8748C14.9996 66.7526 17.3379 67.4878 19.7214 68.1426C22.6094 68.942 25.641 69.2514 28.6578 69.0547C34.2727 68.6899 39.7089 66.977 45.3771 67.1047C50.0229 67.2105 54.1719 68.6443 57.9103 70.7786V55.6378C57.9101 50.599 56.1832 45.6796 52.9593 41.5342C49.7353 37.3889 45.1673 34.2141 39.8628 32.4324C45.2518 29.1361 47.8016 24.7909 48.9738 20.9911C49.2809 19.9813 49.3221 18.9221 49.0942 17.8959C48.8664 16.8696 48.3755 15.9038 47.6598 15.0732C46.9441 14.2427 46.0228 13.5698 44.9672 13.1067C43.9116 12.6436 42.7502 12.4028 41.5729 12.4028H34.517L30.0005 18.7601L27.0052 12.4028H18.4321C17.2542 12.4033 16.0924 12.6451 15.0367 13.1093C13.981 13.5735 13.06 14.2477 12.3451 15.0795C11.6302 15.9113 11.1407 16.8783 10.9146 17.9054C10.6886 18.9326 10.732 19.9922 11.0415 21.002C12.2117 24.8018 14.7614 29.147 20.1504 32.4433C14.8464 34.2254 10.2787 37.4003 7.0552 41.5456C3.83164 45.6909 2.10501 50.6101 2.10501 55.6488V69.4451C5.22549 67.8398 8.92491 67.0445 12.4703 66.8748Z" fill="#B3E3FA"/>
<path d="M2.09475 79.9998C1.54101 79.9998 1.00996 79.8044 0.618414 79.4564C0.226866 79.1085 0.00689697 78.6367 0.00689697 78.1446L0.00689697 55.6488C0.0273117 50.2372 1.89154 44.958 5.35415 40.5061C8.81677 36.0542 13.7154 32.6385 19.4052 30.7085C19.9182 30.5512 20.48 30.5778 20.9713 30.7826C21.4626 30.9874 21.8447 31.3543 22.0365 31.8054C22.2284 32.2565 22.2148 32.7562 21.9987 33.1985C21.7826 33.6409 21.3811 33.9909 20.8792 34.1745C15.9809 35.8368 11.7638 38.7781 8.78313 42.6112C5.80244 46.4444 4.19784 50.9896 4.18054 55.6488V78.1446C4.18081 78.3882 4.12706 78.6294 4.02236 78.8544C3.91766 79.0795 3.76406 79.284 3.57035 79.4563C3.37664 79.6286 3.14661 79.7653 2.89342 79.8586C2.64023 79.9518 2.36883 79.9998 2.09475 79.9998Z" fill="#7F4A23"/>
<path d="M2.09269 79.9998C1.58054 80.0013 1.08567 79.8353 0.702379 79.5335C0.31909 79.2317 0.0741755 78.8151 0.0143056 78.3631C-0.0455642 77.9111 0.0837961 77.4554 0.377736 77.0827C0.671676 76.7101 1.10965 76.4465 1.60819 76.3423L8.58821 74.8593C13.4894 73.824 18.5955 73.824 23.4967 74.8593H23.5132C27.7804 75.7622 32.2267 75.7622 36.4939 74.8593C41.4004 73.8217 46.5124 73.8217 51.4189 74.8593L58.3989 76.3423C58.9371 76.4567 59.4021 76.7564 59.6917 77.1755C59.9812 77.5946 60.0715 78.0987 59.9427 78.5769C59.814 79.0552 59.4767 79.4684 59.005 79.7256C58.5334 79.9829 57.9661 80.0631 57.4279 79.9487L50.4478 78.4657C46.1799 77.5627 41.7329 77.5627 37.465 78.4657C32.5632 79.5018 27.4562 79.5018 22.5544 78.4657H22.5401C18.2721 77.5627 13.8252 77.5627 9.55721 78.4657L2.57718 79.9487C2.41849 79.9825 2.25588 79.9997 2.09269 79.9998Z" fill="#7F4A23"/>
<path d="M2.09269 71.5555C1.58054 71.557 1.08567 71.391 0.702379 71.0891C0.31909 70.7873 0.0741755 70.3707 0.0143056 69.9188C-0.0455642 69.4668 0.0837961 69.0111 0.377736 68.6384C0.671676 68.2657 1.10965 68.0022 1.60819 67.898L8.58821 66.4149C13.4893 65.3788 18.5956 65.3788 23.4967 66.4149H23.5132C27.7804 67.3179 32.2267 67.3179 36.4939 66.4149C41.4004 65.3773 46.5124 65.3773 51.4189 66.4149L58.3989 67.898C58.9371 68.0124 59.4021 68.3121 59.6917 68.7312C59.9812 69.1503 60.0715 69.6544 59.9427 70.1326C59.814 70.6108 59.4767 71.024 59.005 71.2813C58.5334 71.5386 57.9661 71.6188 57.4279 71.5044L50.4478 70.0213C46.1799 69.1183 41.7329 69.1183 37.465 70.0213C32.5632 71.0574 27.4562 71.0574 22.5544 70.0213H22.5401C18.2719 69.1202 13.8254 69.1202 9.55721 70.0213L2.57718 71.5062C2.41841 71.5394 2.2558 71.5559 2.09269 71.5555Z" fill="#7F4A23"/>
<path d="M57.9103 80.0002C57.6362 80.0002 57.3648 79.9522 57.1116 79.859C56.8584 79.7657 56.6284 79.6291 56.4347 79.4568C56.241 79.2845 56.0874 79.0799 55.9827 78.8549C55.878 78.6298 55.8243 78.3886 55.8245 78.145V55.6492C55.8071 50.9903 54.2024 46.4453 51.2217 42.6125C48.241 38.7797 44.024 35.8387 39.1258 34.1767C38.8621 34.0959 38.6192 33.9688 38.4117 33.8031C38.2042 33.6373 38.0362 33.4363 37.9177 33.2118C37.7992 32.9874 37.7326 32.7441 37.7218 32.4963C37.711 32.2486 37.7563 32.0014 37.8549 31.7695C37.9535 31.5376 38.1035 31.3256 38.296 31.1461C38.4885 30.9666 38.7196 30.8233 38.9755 30.7245C39.2315 30.6258 39.5071 30.5737 39.7861 30.5714C40.0651 30.569 40.3418 30.6164 40.5999 30.7108C46.2891 32.6412 51.1872 36.0572 54.6493 40.509C58.1115 44.9608 59.9756 50.2397 59.9961 55.651V78.145C59.9964 78.3886 59.9426 78.6298 59.8379 78.8549C59.7332 79.0799 59.5796 79.2845 59.3859 79.4568C59.1922 79.6291 58.9622 79.7657 58.709 79.859C58.4558 79.9522 58.1844 80.0002 57.9103 80.0002Z" fill="#7F4A23"/>
<path d="M25.9623 34.2984H20.1422C19.72 34.2981 19.3078 34.1842 18.9597 33.9718C13.9772 30.9236 10.6309 26.7244 9.01934 21.4908C8.6242 20.205 8.56828 18.8555 8.85594 17.5474C9.14361 16.2392 9.76709 15.0077 10.6779 13.9487C11.5887 12.8896 12.7622 12.0316 14.1071 11.4414C15.452 10.8511 16.9321 10.5446 18.4321 10.5457H27.0052C27.4164 10.5457 27.8185 10.6536 28.161 10.8558C28.5035 11.0579 28.7713 11.3454 28.9309 11.6821L31.9261 18.0394C32.1209 18.4897 32.1106 18.9896 31.8974 19.4333C31.6843 19.8769 31.2851 20.2294 30.7844 20.4159C30.2838 20.6023 29.721 20.6082 29.2156 20.4323C28.7101 20.2563 28.3017 19.9123 28.0769 19.4732L25.6133 14.2524H18.428C17.5702 14.252 16.7239 14.4274 15.9548 14.7649C15.1857 15.1024 14.5146 15.593 13.9937 16.1985C13.4727 16.804 13.1159 17.5081 12.9511 18.2561C12.7862 19.0041 12.8177 19.7758 13.0431 20.5112C14.3324 24.694 16.9437 28.0816 20.8074 30.5898H25.9623C26.5045 30.6049 27.0187 30.8069 27.3962 31.153C27.7736 31.4991 27.9847 31.9621 27.9847 32.4441C27.9847 32.926 27.7736 33.3891 27.3962 33.7352C27.0187 34.0813 26.5045 34.2833 25.9623 34.2984Z" fill="#7F4A23"/>
<path d="M39.8629 34.2982C39.4177 34.2979 38.9844 34.1712 38.626 33.9367C38.2676 33.7021 38.003 33.3719 37.8707 32.9943C37.7385 32.6166 37.7455 32.2113 37.8908 31.8375C38.036 31.4636 38.312 31.1408 38.6783 30.9161C42.8294 28.3787 45.6152 24.8781 46.962 20.5183C47.1867 19.7828 47.2176 19.0112 47.0521 18.2634C46.8867 17.5156 46.5294 16.8118 46.0081 16.2067C45.4867 15.6016 44.8154 15.1114 44.0462 14.7743C43.277 14.4372 42.4306 14.2623 41.573 14.2631H34.517C34.2431 14.2631 33.9718 14.2152 33.7188 14.1221C33.4657 14.0289 33.2358 13.8924 33.0421 13.7203C32.8484 13.5482 32.6948 13.3439 32.59 13.119C32.4851 12.8942 32.4312 12.6532 32.4312 12.4098C32.4312 12.1664 32.4851 11.9254 32.59 11.7005C32.6948 11.4757 32.8484 11.2713 33.0421 11.0992C33.2358 10.9271 33.4657 10.7906 33.7188 10.6975C33.9718 10.6043 34.2431 10.5564 34.517 10.5564H41.573C43.073 10.5554 44.553 10.8619 45.898 11.4521C47.2429 12.0423 48.4164 12.9004 49.3272 13.9594C50.238 15.0185 50.8615 16.25 51.1491 17.5581C51.4368 18.8662 51.3809 20.2157 50.9857 21.5015C49.3721 26.7351 46.0279 30.9344 41.0454 33.9826C40.6962 34.1916 40.2839 34.3017 39.8629 34.2982Z" fill="#7F4A23"/>
<path d="M18.4506 14.2562C17.8974 14.2562 17.3669 14.0609 16.9757 13.7134C16.5845 13.3658 16.3648 12.8944 16.3648 12.4028V1.79703C16.3818 1.31531 16.6091 0.858378 16.9986 0.522968C17.3881 0.187558 17.9092 0 18.4516 0C18.994 0 19.5151 0.187558 19.9046 0.522968C20.2941 0.858378 20.5214 1.31531 20.5384 1.79703V12.4028C20.5384 12.6464 20.4844 12.8875 20.3795 13.1125C20.2745 13.3375 20.1207 13.5419 19.9268 13.714C19.7329 13.8861 19.5027 14.0226 19.2494 14.1157C18.9961 14.2087 18.7247 14.2565 18.4506 14.2562Z" fill="#7F4A23"/>
<path d="M41.1931 14.2562C40.9191 14.2565 40.6476 14.2087 40.3943 14.1157C40.141 14.0226 39.9108 13.8861 39.7169 13.714C39.523 13.5419 39.3692 13.3375 39.2643 13.1125C39.1593 12.8875 39.1053 12.6464 39.1053 12.4028V1.79703C39.1223 1.31531 39.3496 0.858378 39.7391 0.522968C40.1286 0.187558 40.6497 0 41.1921 0C41.7345 0 42.2556 0.187558 42.6451 0.522968C43.0346 0.858378 43.2619 1.31531 43.2789 1.79703V12.4028C43.2789 12.8944 43.0592 13.3658 42.668 13.7134C42.2769 14.0609 41.7463 14.2562 41.1931 14.2562Z" fill="#7F4A23"/>
</svg>
