<svg width="69" height="60" viewBox="0 0 69 60" fill="none" xmlns="http://www.w3.org/2000/svg">
<path d="M61.6071 0H7.39286C5.43215 0 3.55175 0.677294 2.16532 1.88289C0.778888 3.08848 0 4.72361 0 6.42857L0 53.5714C0 55.2764 0.778888 56.9115 2.16532 58.1171C3.55175 59.3227 5.43215 60 7.39286 60H28.5318V39.6013H18.8287V30H28.5318V22.6821C28.5318 14.3585 34.2305 9.76071 42.9587 9.76071C47.1387 9.76071 51.5097 10.4089 51.5097 10.4089V18.5786H46.6936C41.9483 18.5786 40.4682 21.1393 40.4682 23.7656V30H51.0615L49.3673 39.6013H40.4682V60H61.6071C63.5678 60 65.4482 59.3227 66.8347 58.1171C68.2211 56.9115 69 55.2764 69 53.5714V6.42857C69 4.72361 68.2211 3.08848 66.8347 1.88289C65.4482 0.677294 63.5678 0 61.6071 0Z" fill="#F6F6F6"/>
</svg>
