<svg width="69" height="60" viewBox="0 0 69 60" fill="none" xmlns="http://www.w3.org/2000/svg">
<path d="M67.5599 9.37249C67.1671 7.55757 66.397 5.90247 65.3267 4.57283C64.2563 3.2432 62.9232 2.28566 61.4608 1.79606C56.0779 -0.000121706 34.5 -0.00012207 34.5 -0.00012207C34.5 -0.00012207 12.9221 -0.000122435 7.53917 1.7865C6.07616 2.27452 4.7424 3.23152 3.67183 4.5614C2.60126 5.89129 1.83157 7.54723 1.44007 9.36294C-2.93766e-07 16.0508 0 29.9999 0 29.9999C0 29.9999 -2.93766e-07 43.9489 1.44007 50.6273C2.23326 54.3152 4.57433 57.2196 7.53917 58.2037C12.9221 59.9999 34.5 59.9999 34.5 59.9999C34.5 59.9999 56.0779 59.9999 61.4608 58.2037C64.4334 57.2196 66.7667 54.3152 67.5599 50.6273C69 43.9489 69 29.9999 69 29.9999C69 29.9999 69 16.0508 67.5599 9.37249ZM27.6462 42.8024V17.1973L45.5123 29.9043L27.6462 42.8024Z" fill="#F6F6F6"/>
</svg>
