<svg width="100" height="68" viewBox="0 0 100 68" fill="none" xmlns="http://www.w3.org/2000/svg">
<path d="M65.0737 14.3983L65.9329 10.5183C66.0023 10.2051 65.9263 9.87717 65.7262 9.62692C65.5261 9.37668 65.2235 9.23096 64.9038 9.23096H56.9974C56.6776 9.23096 56.3752 9.37647 56.175 9.62692C55.975 9.87717 55.8989 10.2051 55.9682 10.5183L56.8277 14.3992C55.8135 14.6732 54.8281 15.0486 53.8873 15.5199C50.4816 12.3914 46.095 10.6767 41.4481 10.6767C31.2759 10.6767 23 18.9809 23 29.188C23 39.3951 31.2759 47.6993 41.4482 47.6993C45.7256 47.6993 49.8453 46.2167 53.1349 43.5104C55.51 44.8677 58.1949 45.5838 60.9507 45.5838C69.6698 45.5838 76.7634 38.4659 76.7634 29.7169C76.7634 22.3988 71.7998 16.2229 65.0737 14.3983ZM63.5897 11.3467L63.0056 13.984C62.3328 13.896 61.6469 13.8501 60.9506 13.8501C60.2616 13.8501 59.5753 13.8957 58.8958 13.9849L58.3117 11.3467H63.5897V11.3467ZM52.3242 41.4236C49.3303 44.1063 45.4678 45.5838 41.4482 45.5838C32.4384 45.5838 25.1083 38.2286 25.1083 29.188C25.1083 20.1474 32.4384 12.7922 41.4482 12.7922C45.3452 12.7922 49.0362 14.1531 51.9781 16.6499L51.9851 16.6482C51.3884 17.0609 50.8203 17.5137 50.2849 18.0046L50.2861 18.0007C47.7751 15.9997 44.6731 14.9078 41.4482 14.9078C33.601 14.9078 27.2168 21.3139 27.2168 29.1879C27.2168 37.0619 33.601 43.468 41.4482 43.468C44.7263 43.468 47.9281 42.3181 50.464 40.2301C51.6644 39.2414 52.6908 38.0721 53.5148 36.7541C54.9312 34.4856 55.6798 31.8693 55.6798 29.1878C55.6798 27.0357 55.1912 24.904 54.261 22.9757C54.7744 22.4621 55.3383 22.0106 55.951 21.6288C57.1555 23.9516 57.7881 26.5445 57.7881 29.1878C57.7881 32.4842 56.8175 35.6626 54.9814 38.3795C54.2242 39.4995 53.3303 40.5234 52.3242 41.4236ZM48.8199 19.5369C46.4378 22.3888 45.1378 25.9621 45.1378 29.7168C45.1378 33.1563 46.2507 36.4906 48.291 39.2239C46.2839 40.6026 43.8908 41.3525 41.4481 41.3525C34.7634 41.3525 29.325 35.8955 29.325 29.1879C29.325 22.4803 34.7634 17.0233 41.4481 17.0233C44.1286 17.0234 46.7089 17.9097 48.8199 19.5369ZM51.463 29.7169C51.463 28.0061 51.9243 26.3366 52.7828 24.8794C53.3006 26.2502 53.5713 27.7131 53.5713 29.1881C53.5713 30.8927 53.2159 32.5661 52.5345 34.1082C51.831 32.7614 51.463 31.2699 51.463 29.7169ZM57.8541 20.7172C58.8445 20.3718 59.8817 20.1968 60.9507 20.1968C66.1822 20.1968 70.4384 24.4675 70.4384 29.7169C70.4384 34.9664 66.1822 39.2371 60.9507 39.2371C59.7224 39.2371 58.5054 38.9954 57.3757 38.5334C59.0279 35.7052 59.8965 32.4991 59.8965 29.1881C59.8965 26.2286 59.1931 23.3246 57.8541 20.7172ZM60.9507 43.4682C58.7887 43.4682 56.6767 42.9615 54.7699 41.9937L54.7643 41.9964C55.2709 41.4665 55.7461 40.9067 56.1869 40.32L56.1866 40.3239C57.6769 40.999 59.3062 41.3526 60.9507 41.3526C67.3448 41.3526 72.5467 36.1329 72.5467 29.7169C72.5467 23.301 67.3448 18.0813 60.9507 18.0813C59.1808 18.0813 57.4807 18.473 55.8983 19.2453C54.4754 19.9382 53.2263 20.9003 52.1853 22.1054C50.3599 24.2201 49.3547 26.9235 49.3547 29.7169C49.3547 32.0614 50.0374 34.2927 51.3362 36.2157C50.9143 36.8115 50.4418 37.368 49.921 37.879C48.1894 35.5251 47.2464 32.6657 47.2464 29.7169C47.2464 26.134 48.612 22.7416 51.0913 20.1649C52.0146 19.2057 53.07 18.3869 54.2276 17.7311C56.2682 16.5762 58.5931 15.9657 60.9508 15.9657C68.5075 15.9657 74.6552 22.1346 74.6552 29.717C74.6552 37.2995 68.5074 43.4682 60.9507 43.4682Z" fill="black"/>
<path d="M60.0809 7.11554H61.8204C62.4025 7.11554 62.8745 6.64192 62.8745 6.05777C62.8745 5.47351 62.4024 5 61.8204 5H60.0809C59.4988 5 59.0268 5.47362 59.0268 6.05777C59.0268 6.64192 59.4989 7.11554 60.0809 7.11554Z" fill="black"/>
<path d="M9.53913 51.835H10.3971L11.6971 55.111L13.0101 51.835H13.8811L12.2691 55.774L14.0371 59.947L17.3781 51.77H18.3661L14.4531 61H13.6471L11.7101 56.437L9.76013 61H8.96713L5.06713 51.77H6.04213L9.39613 59.947L11.1511 55.774L9.53913 51.835ZM25.8658 60.194V61H19.6648V51.77H25.7488V52.576H20.5748V55.904H25.0858V56.671H20.5748V60.194H25.8658ZM27.5867 61V51.77H30.7197C31.699 51.77 32.5137 51.978 33.1637 52.394C33.8224 52.8013 34.3164 53.356 34.6457 54.058C34.975 54.7513 35.1397 55.5227 35.1397 56.372C35.1397 57.308 34.9577 58.1227 34.5937 58.816C34.2384 59.5093 33.727 60.0467 33.0597 60.428C32.401 60.8093 31.621 61 30.7197 61H27.5867ZM34.2297 56.372C34.2297 55.6353 34.091 54.981 33.8137 54.409C33.545 53.837 33.1507 53.3907 32.6307 53.07C32.1107 52.7407 31.4737 52.576 30.7197 52.576H28.4967V60.194H30.7197C31.4824 60.194 32.1237 60.025 32.6437 59.687C33.1637 59.349 33.558 58.894 33.8267 58.322C34.0954 57.7413 34.2297 57.0913 34.2297 56.372ZM36.8797 61V51.77H40.0127C40.992 51.77 41.8067 51.978 42.4567 52.394C43.1153 52.8013 43.6093 53.356 43.9387 54.058C44.268 54.7513 44.4327 55.5227 44.4327 56.372C44.4327 57.308 44.2507 58.1227 43.8867 58.816C43.5313 59.5093 43.02 60.0467 42.3527 60.428C41.694 60.8093 40.914 61 40.0127 61H36.8797ZM43.5227 56.372C43.5227 55.6353 43.384 54.981 43.1067 54.409C42.838 53.837 42.4437 53.3907 41.9237 53.07C41.4037 52.7407 40.7667 52.576 40.0127 52.576H37.7897V60.194H40.0127C40.7753 60.194 41.4167 60.025 41.9367 59.687C42.4567 59.349 42.851 58.894 43.1197 58.322C43.3883 57.7413 43.5227 57.0913 43.5227 56.372ZM46.1726 61V51.77H47.0826V61H46.1726ZM50.3072 53.447V61H49.3972V51.77H50.1512L56.2092 59.466V51.783H57.1192V61H56.2742L50.3072 53.447ZM63.1442 61.065C62.5289 61.065 61.9569 60.935 61.4282 60.675C60.8996 60.4063 60.4402 60.0467 60.0502 59.596C59.6602 59.1453 59.3569 58.6427 59.1402 58.088C58.9322 57.5333 58.8282 56.9613 58.8282 56.372C58.8282 55.748 58.9322 55.1587 59.1402 54.604C59.3569 54.0407 59.6559 53.5423 60.0372 53.109C60.4186 52.6757 60.8692 52.3333 61.3892 52.082C61.9092 51.8307 62.4769 51.705 63.0922 51.705C64.0022 51.705 64.7432 51.8913 65.3152 52.264C65.8872 52.6367 66.3206 53.122 66.6152 53.72L65.9132 54.188C65.6186 53.616 65.2242 53.1957 64.7302 52.927C64.2362 52.6583 63.6859 52.524 63.0792 52.524C62.5679 52.524 62.1042 52.6323 61.6882 52.849C61.2809 53.0657 60.9299 53.356 60.6352 53.72C60.3406 54.084 60.1152 54.4957 59.9592 54.955C59.8119 55.4143 59.7382 55.891 59.7382 56.385C59.7382 56.905 59.8249 57.399 59.9982 57.867C60.1716 58.3263 60.4186 58.738 60.7392 59.102C61.0599 59.4573 61.4282 59.739 61.8442 59.947C62.2689 60.1463 62.7239 60.246 63.2092 60.246C63.7726 60.246 64.3056 60.1073 64.8082 59.83C65.3109 59.544 65.7919 59.1063 66.2512 58.517V59.479C65.3759 60.5363 64.3402 61.065 63.1442 61.065ZM66.1082 57.165H64.0542V56.463H66.8752V61H66.1082V57.165ZM72.0584 61V51.77H75.1914C76.1707 51.77 76.9854 51.978 77.6354 52.394C78.294 52.8013 78.788 53.356 79.1174 54.058C79.4467 54.7513 79.6114 55.5227 79.6114 56.372C79.6114 57.308 79.4294 58.1227 79.0654 58.816C78.71 59.5093 78.1987 60.0467 77.5314 60.428C76.8727 60.8093 76.0927 61 75.1914 61H72.0584ZM78.7014 56.372C78.7014 55.6353 78.5627 54.981 78.2854 54.409C78.0167 53.837 77.6224 53.3907 77.1024 53.07C76.5824 52.7407 75.9454 52.576 75.1914 52.576H72.9684V60.194H75.1914C75.954 60.194 76.5954 60.025 77.1154 59.687C77.6354 59.349 78.0297 58.894 78.2984 58.322C78.567 57.7413 78.7014 57.0913 78.7014 56.372ZM83.8813 51.77H84.6483L88.4833 61H87.5213L86.3253 58.114H82.1783L80.9953 61H80.0203L83.8813 51.77ZM86.1173 57.399L84.2583 52.836L82.3733 57.399H86.1173ZM88.8301 51.77L91.8461 56.736L94.8881 51.77H95.8761L92.3011 57.568V61H91.3911V57.542L87.8291 51.77H88.8301Z" fill="black"/>
</svg>
