<svg width="368" height="239" viewBox="0 0 368 239" fill="none" xmlns="http://www.w3.org/2000/svg">
<path d="M25.3463 60.976C25.3463 60.64 25.4143 60.328 25.5503 60.04C25.6863 59.744 25.8743 59.492 26.1143 59.284C26.3543 59.068 26.6343 58.9 26.9543 58.78C27.2823 58.66 27.6343 58.6 28.0103 58.6C28.3623 58.6 28.6983 58.66 29.0183 58.78C29.3383 58.9 29.6183 59.068 29.8583 59.284C30.1063 59.492 30.3023 59.744 30.4463 60.04C30.5903 60.328 30.6623 60.64 30.6623 60.976C30.6623 61.336 30.5863 61.66 30.4343 61.948C30.2903 62.236 30.0983 62.484 29.8583 62.692C29.6103 62.892 29.3263 63.048 29.0063 63.16C28.6863 63.272 28.3543 63.328 28.0103 63.328C27.6503 63.328 27.3063 63.272 26.9783 63.16C26.6583 63.04 26.3783 62.876 26.1383 62.668C25.8903 62.46 25.6943 62.212 25.5503 61.924C25.4143 61.636 25.3463 61.32 25.3463 60.976ZM26.6663 60.976C26.6663 61.408 26.7943 61.768 27.0503 62.056C27.3063 62.336 27.6263 62.476 28.0103 62.476C28.3863 62.476 28.7023 62.336 28.9583 62.056C29.2143 61.768 29.3423 61.408 29.3423 60.976C29.3423 60.568 29.2103 60.216 28.9463 59.92C28.6823 59.624 28.3703 59.476 28.0103 59.476C27.6263 59.476 27.3063 59.616 27.0503 59.896C26.7943 60.168 26.6663 60.528 26.6663 60.976ZM33.8663 58.36V62.464C33.8663 62.872 33.7783 63.176 33.6023 63.376C33.4343 63.576 33.2063 63.676 32.9183 63.676H32.6183V59.08C32.6183 58.84 32.5823 58.688 32.5103 58.624C32.4383 58.552 32.3143 58.496 32.1383 58.456C31.9223 58.424 31.7703 58.376 31.6823 58.312C31.5943 58.24 31.5503 58.156 31.5503 58.06C31.5503 57.956 31.5983 57.876 31.6943 57.82C31.7983 57.756 31.9103 57.724 32.0303 57.724H33.2543C33.4143 57.724 33.5543 57.788 33.6743 57.916C33.8023 58.044 33.8663 58.192 33.8663 58.36ZM28.0703 66.136H32.4383V65.104H28.3583C28.2383 65.104 28.1383 65.056 28.0583 64.96C27.9783 64.856 27.9383 64.756 27.9383 64.66C27.9383 64.564 27.9783 64.468 28.0583 64.372C28.1383 64.276 28.2463 64.228 28.3823 64.228H33.1343C33.2783 64.228 33.4103 64.276 33.5303 64.372C33.6583 64.468 33.7223 64.596 33.7223 64.756V66.364C33.7223 66.54 33.6663 66.688 33.5543 66.808C33.4503 66.928 33.3223 66.988 33.1703 66.988H29.5823V67.78C29.5823 67.924 29.6103 68.008 29.6663 68.032C29.7303 68.056 29.8103 68.068 29.9063 68.068H33.7103C33.8303 68.068 33.9303 68.12 34.0103 68.224C34.0903 68.336 34.1303 68.432 34.1303 68.512C34.1303 68.616 34.0863 68.716 33.9983 68.812C33.9183 68.908 33.8223 68.956 33.7103 68.956H29.2583C28.9863 68.956 28.7583 68.864 28.5743 68.68C28.3983 68.496 28.3103 68.288 28.3103 68.056V67.312C28.3103 67.128 28.2943 67.008 28.2623 66.952C28.2383 66.888 28.1583 66.836 28.0223 66.796C27.9103 66.772 27.8223 66.732 27.7583 66.676C27.7023 66.62 27.6743 66.544 27.6743 66.448C27.6743 66.352 27.7223 66.276 27.8183 66.22C27.9143 66.164 27.9983 66.136 28.0703 66.136Z" fill="#FF0000"/>
<path d="M28.956 115.692L28.812 118.188C28.86 118.156 28.996 118.1 29.22 118.02C29.444 117.932 29.7 117.884 29.988 117.876C30.38 117.868 30.74 117.928 31.068 118.056C31.404 118.176 31.692 118.356 31.932 118.596C32.172 118.828 32.356 119.108 32.484 119.436C32.62 119.764 32.688 120.12 32.688 120.504C32.688 120.976 32.6 121.392 32.424 121.752C32.248 122.104 32.012 122.4 31.716 122.64C31.42 122.88 31.084 123.06 30.708 123.18C30.332 123.308 29.94 123.372 29.532 123.372C29.076 123.372 28.672 123.332 28.32 123.252C27.976 123.172 27.672 123.04 27.408 122.856V121.92C27.696 122.112 28.028 122.248 28.404 122.328C28.788 122.408 29.128 122.448 29.424 122.448C30.048 122.448 30.528 122.26 30.864 121.884C31.208 121.5 31.38 121.02 31.38 120.444C31.38 119.996 31.244 119.604 30.972 119.268C30.708 118.924 30.36 118.752 29.928 118.752C29.664 118.752 29.404 118.812 29.148 118.932C28.892 119.052 28.692 119.22 28.548 119.436H27.624L27.852 114.768H32.112V115.692H28.956Z" fill="#FF0000"/>
<path d="M26.592 156.252V149.976C26.592 149.624 26.552 149.384 26.472 149.256C26.4 149.12 26.2 149.112 25.872 149.232C25.808 149.256 25.748 149.28 25.692 149.304C25.636 149.32 25.608 149.328 25.608 149.328C25.512 149.36 25.424 149.356 25.344 149.316C25.272 149.268 25.22 149.208 25.188 149.136C25.148 149.064 25.136 148.988 25.152 148.908C25.176 148.828 25.24 148.764 25.344 148.716L27.24 147.648H27.828V156.252H26.592ZM30.372 156.252V155.592C30.404 155.56 30.44 155.528 30.48 155.496C30.52 155.456 30.56 155.416 30.6 155.376C30.648 155.336 30.692 155.292 30.732 155.244C30.78 155.196 30.836 155.144 30.9 155.088C31.06 154.936 31.244 154.744 31.452 154.512C31.668 154.272 31.888 154.012 32.112 153.732C32.336 153.46 32.556 153.18 32.772 152.892C32.988 152.604 33.18 152.324 33.348 152.052C33.54 151.74 33.708 151.404 33.852 151.044C33.996 150.676 34.068 150.292 34.068 149.892C34.068 149.508 33.956 149.188 33.732 148.932C33.508 148.668 33.14 148.536 32.628 148.536C32.404 148.536 32.208 148.58 32.04 148.668C31.872 148.748 31.732 148.852 31.62 148.98C31.5 149.1 31.408 149.236 31.344 149.388C31.28 149.54 31.244 149.684 31.236 149.82H30.204C30.212 149.572 30.268 149.32 30.372 149.064C30.476 148.8 30.632 148.564 30.84 148.356C31.04 148.148 31.296 147.98 31.608 147.852C31.928 147.716 32.304 147.648 32.736 147.648C33.576 147.648 34.224 147.872 34.68 148.32C35.144 148.768 35.376 149.392 35.376 150.192C35.376 150.504 35.292 150.856 35.124 151.248C34.964 151.64 34.76 152.004 34.512 152.34C34.288 152.644 34.036 152.96 33.756 153.288C33.484 153.616 33.22 153.928 32.964 154.224C32.7 154.512 32.464 154.764 32.256 154.98C32.048 155.196 31.9 155.34 31.812 155.412H33.744C34.088 155.412 34.352 155.36 34.536 155.256C34.72 155.152 34.856 154.884 34.944 154.452C34.96 154.372 35.004 154.316 35.076 154.284C35.148 154.244 35.22 154.228 35.292 154.236C35.372 154.244 35.44 154.272 35.496 154.32C35.56 154.36 35.592 154.412 35.592 154.476L35.472 156.252H30.372Z" fill="#FF0000"/>
<path d="M26.592 190.252V183.976C26.592 183.624 26.552 183.384 26.472 183.256C26.4 183.12 26.2 183.112 25.872 183.232C25.808 183.256 25.748 183.28 25.692 183.304C25.636 183.32 25.608 183.328 25.608 183.328C25.512 183.36 25.424 183.356 25.344 183.316C25.272 183.268 25.22 183.208 25.188 183.136C25.148 183.064 25.136 182.988 25.152 182.908C25.176 182.828 25.24 182.764 25.344 182.716L27.24 181.648H27.828V190.252H26.592ZM35.628 185.836C35.628 186.252 35.596 186.672 35.532 187.096C35.476 187.512 35.38 187.904 35.244 188.272C35.108 188.648 34.928 188.988 34.704 189.292C34.48 189.596 34.2 189.836 33.864 190.012C33.648 190.132 33.416 190.22 33.168 190.276C32.92 190.332 32.66 190.36 32.388 190.36C32.116 190.36 31.82 190.328 31.5 190.264C31.188 190.208 30.904 190.1 30.648 189.94V189.064C30.936 189.208 31.232 189.312 31.536 189.376C31.848 189.44 32.14 189.468 32.412 189.46C32.532 189.46 32.648 189.448 32.76 189.424C32.872 189.392 32.976 189.352 33.072 189.304C33.424 189.112 33.7 188.832 33.9 188.464C34.1 188.088 34.232 187.684 34.296 187.252C34.304 187.156 34.312 187.06 34.32 186.964C34.328 186.86 34.332 186.764 34.332 186.676C34.34 186.588 34.344 186.516 34.344 186.46C34.344 186.396 34.344 186.36 34.344 186.352C34.304 186.392 34.172 186.484 33.948 186.628C33.732 186.764 33.484 186.852 33.204 186.892C32.9 186.964 32.576 186.972 32.232 186.916C31.888 186.852 31.568 186.716 31.272 186.508C30.984 186.3 30.74 186.016 30.54 185.656C30.348 185.288 30.252 184.828 30.252 184.276C30.252 183.476 30.488 182.84 30.96 182.368C31.432 181.888 32.088 181.648 32.928 181.648C33.512 181.648 33.98 181.78 34.332 182.044C34.684 182.3 34.956 182.628 35.148 183.028C35.34 183.428 35.468 183.876 35.532 184.372C35.596 184.868 35.628 185.356 35.628 185.836ZM34.332 185.26V184.9C34.332 184.668 34.308 184.412 34.26 184.132C34.212 183.844 34.136 183.576 34.032 183.328C33.92 183.072 33.772 182.86 33.588 182.692C33.404 182.524 33.176 182.436 32.904 182.428C32.456 182.428 32.116 182.596 31.884 182.932C31.652 183.26 31.536 183.692 31.536 184.228C31.536 184.756 31.636 185.204 31.836 185.572C32.036 185.932 32.36 186.112 32.808 186.112C33.152 186.112 33.464 186.016 33.744 185.824C34.024 185.632 34.22 185.444 34.332 185.26Z" fill="#FF0000"/>
<path d="M24.372 222.252V221.592C24.404 221.56 24.44 221.528 24.48 221.496C24.52 221.456 24.56 221.416 24.6 221.376C24.648 221.336 24.692 221.292 24.732 221.244C24.78 221.196 24.836 221.144 24.9 221.088C25.06 220.936 25.244 220.744 25.452 220.512C25.668 220.272 25.888 220.012 26.112 219.732C26.336 219.46 26.556 219.18 26.772 218.892C26.988 218.604 27.18 218.324 27.348 218.052C27.54 217.74 27.708 217.404 27.852 217.044C27.996 216.676 28.068 216.292 28.068 215.892C28.068 215.508 27.956 215.188 27.732 214.932C27.508 214.668 27.14 214.536 26.628 214.536C26.404 214.536 26.208 214.58 26.04 214.668C25.872 214.748 25.732 214.852 25.62 214.98C25.5 215.1 25.408 215.236 25.344 215.388C25.28 215.54 25.244 215.684 25.236 215.82H24.204C24.212 215.572 24.268 215.32 24.372 215.064C24.476 214.8 24.632 214.564 24.84 214.356C25.04 214.148 25.296 213.98 25.608 213.852C25.928 213.716 26.304 213.648 26.736 213.648C27.576 213.648 28.224 213.872 28.68 214.32C29.144 214.768 29.376 215.392 29.376 216.192C29.376 216.504 29.292 216.856 29.124 217.248C28.964 217.64 28.76 218.004 28.512 218.34C28.288 218.644 28.036 218.96 27.756 219.288C27.484 219.616 27.22 219.928 26.964 220.224C26.7 220.512 26.464 220.764 26.256 220.98C26.048 221.196 25.9 221.34 25.812 221.412H27.744C28.088 221.412 28.352 221.36 28.536 221.256C28.72 221.152 28.856 220.884 28.944 220.452C28.96 220.372 29.004 220.316 29.076 220.284C29.148 220.244 29.22 220.228 29.292 220.236C29.372 220.244 29.44 220.272 29.496 220.32C29.56 220.36 29.592 220.412 29.592 220.476L29.472 222.252H24.372ZM35.316 214.092V214.932C34.996 214.772 34.696 214.664 34.416 214.608C34.136 214.552 33.896 214.524 33.696 214.524C33.52 214.524 33.36 214.544 33.216 214.584C33.072 214.624 32.94 214.68 32.82 214.752C32.564 214.912 32.356 215.116 32.196 215.364C32.036 215.612 31.912 215.876 31.824 216.156C31.736 216.428 31.676 216.704 31.644 216.984C31.612 217.264 31.596 217.512 31.596 217.728C31.612 217.712 31.656 217.668 31.728 217.596C31.808 217.516 31.92 217.432 32.064 217.344C32.2 217.264 32.372 217.188 32.58 217.116C32.796 217.044 33.052 217.008 33.348 217.008C34.14 217.008 34.748 217.256 35.172 217.752C35.604 218.24 35.828 218.876 35.844 219.66C35.844 220.46 35.588 221.112 35.076 221.616C34.572 222.12 33.88 222.372 33 222.372C32.384 222.372 31.896 222.236 31.536 221.964C31.176 221.692 30.908 221.348 30.732 220.932C30.548 220.524 30.432 220.076 30.384 219.588C30.336 219.092 30.312 218.628 30.312 218.196C30.312 217.796 30.34 217.388 30.396 216.972C30.46 216.548 30.56 216.144 30.696 215.76C30.84 215.376 31.024 215.032 31.248 214.728C31.48 214.416 31.764 214.172 32.1 213.996C32.3 213.892 32.528 213.808 32.784 213.744C33.048 213.68 33.316 213.648 33.588 213.648C33.876 213.648 34.168 213.684 34.464 213.756C34.768 213.82 35.052 213.932 35.316 214.092ZM31.584 218.88C31.584 219.176 31.6 219.48 31.632 219.792C31.664 220.104 31.732 220.388 31.836 220.644C31.932 220.9 32.076 221.112 32.268 221.28C32.468 221.448 32.736 221.532 33.072 221.532C33.592 221.54 33.968 221.364 34.2 221.004C34.432 220.644 34.548 220.212 34.548 219.708C34.548 219.22 34.444 218.796 34.236 218.436C34.036 218.068 33.708 217.884 33.252 217.884C33.076 217.884 32.904 217.92 32.736 217.992C32.576 218.056 32.424 218.136 32.28 218.232C32.136 218.336 32.004 218.448 31.884 218.568C31.764 218.68 31.664 218.784 31.584 218.88Z" fill="#FF0000"/>
<path d="M77.7423 59.956C77.7423 59.708 77.7983 59.468 77.9103 59.236C78.0223 59.004 78.1863 58.796 78.4023 58.612C78.6103 58.428 78.8623 58.28 79.1583 58.168C79.4623 58.056 79.8023 58 80.1783 58C80.5463 58 80.8783 58.056 81.1743 58.168C81.4703 58.28 81.7263 58.428 81.9423 58.612C82.1503 58.796 82.3103 59.008 82.4223 59.248C82.5343 59.48 82.5903 59.716 82.5903 59.956C82.5903 60.212 82.5303 60.456 82.4103 60.688C82.2983 60.912 82.1343 61.116 81.9183 61.3C81.7103 61.476 81.4583 61.616 81.1623 61.72C80.8663 61.824 80.5383 61.876 80.1783 61.876C79.8023 61.876 79.4623 61.824 79.1583 61.72C78.8623 61.608 78.6103 61.46 78.4023 61.276C78.1863 61.1 78.0223 60.896 77.9103 60.664C77.7983 60.432 77.7423 60.196 77.7423 59.956ZM79.0383 59.956C79.0383 60.188 79.1343 60.42 79.3263 60.652C79.5183 60.884 79.8023 61 80.1783 61C80.5303 61 80.8023 60.888 80.9943 60.664C81.1943 60.432 81.2943 60.196 81.2943 59.956C81.2943 59.7 81.1983 59.464 81.0063 59.248C80.8143 59.024 80.5383 58.912 80.1783 58.912C79.8023 58.912 79.5183 59.02 79.3263 59.236C79.1343 59.452 79.0383 59.692 79.0383 59.956ZM86.0463 58.348V63.22C86.0463 63.612 85.9543 63.912 85.7703 64.12C85.5943 64.328 85.3623 64.432 85.0743 64.432H84.7623V64.108H82.4463C82.3743 64.108 82.2903 64.068 82.1943 63.988C82.1063 63.9 82.0623 63.796 82.0623 63.676C82.0623 63.548 82.1063 63.444 82.1943 63.364C82.2903 63.276 82.3863 63.232 82.4823 63.232H84.7623V59.08C84.7623 58.832 84.7263 58.676 84.6543 58.612C84.5823 58.54 84.4503 58.484 84.2583 58.444C84.0423 58.42 83.8863 58.376 83.7903 58.312C83.7023 58.248 83.6583 58.168 83.6583 58.072C83.6583 57.96 83.7143 57.876 83.8263 57.82C83.9463 57.756 84.0663 57.724 84.1863 57.724H85.4343C85.5783 57.724 85.7143 57.788 85.8423 57.916C85.9783 58.036 86.0463 58.18 86.0463 58.348ZM84.1023 62.536C83.9343 62.624 83.7263 62.704 83.4783 62.776C83.2383 62.84 82.9823 62.892 82.7103 62.932C82.4303 62.98 82.1423 63.016 81.8463 63.04C81.5583 63.056 81.2823 63.064 81.0183 63.064H81.0063V63.232C81.0063 63.64 80.9183 63.956 80.7423 64.18C80.5663 64.396 80.3543 64.504 80.1063 64.504H79.7223V63.064H77.5023C77.3663 63.064 77.2583 63.016 77.1783 62.92C77.0983 62.816 77.0583 62.716 77.0583 62.62C77.0583 62.532 77.0983 62.432 77.1783 62.32C77.2663 62.208 77.3783 62.152 77.5143 62.152H80.9463C81.4663 62.152 81.9583 62.144 82.4223 62.128C82.8943 62.112 83.3583 62.052 83.8143 61.948C83.9823 61.916 84.1103 61.92 84.1983 61.96C84.2863 61.992 84.3383 62.044 84.3543 62.116C84.3703 62.188 84.3543 62.264 84.3063 62.344C84.2663 62.424 84.1983 62.488 84.1023 62.536ZM79.9983 66.388H84.4863V65.668H80.2743C80.1543 65.668 80.0543 65.616 79.9743 65.512C79.9023 65.408 79.8663 65.312 79.8663 65.224C79.8663 65.12 79.9063 65.02 79.9863 64.924C80.0663 64.82 80.1703 64.768 80.2983 64.768H85.1823C85.3423 64.768 85.4783 64.82 85.5903 64.924C85.7103 65.02 85.7703 65.16 85.7703 65.344V66.628C85.7703 66.796 85.7223 66.94 85.6263 67.06C85.5383 67.188 85.4103 67.252 85.2423 67.252H81.4983V67.78C81.4983 67.908 81.5223 67.984 81.5703 68.008C81.6263 68.032 81.7023 68.044 81.7983 68.044H85.7703C85.9063 68.044 86.0063 68.096 86.0703 68.2C86.1423 68.312 86.1783 68.408 86.1783 68.488C86.1783 68.608 86.1383 68.716 86.0583 68.812C85.9863 68.908 85.8903 68.956 85.7703 68.956H81.2223C80.9263 68.956 80.6863 68.86 80.5023 68.668C80.3183 68.484 80.2263 68.272 80.2263 68.032V67.552C80.2263 67.376 80.2103 67.256 80.1783 67.192C80.1463 67.136 80.0663 67.088 79.9383 67.048C79.8343 67.024 79.7503 66.988 79.6863 66.94C79.6303 66.884 79.6023 66.808 79.6023 66.712C79.6023 66.608 79.6503 66.528 79.7463 66.472C79.8423 66.416 79.9263 66.388 79.9983 66.388Z" fill="#3E3E47"/>
<path d="M175.984 16.945H174.904C174.924 16.725 174.994 16.475 175.114 16.195C175.234 15.915 175.414 15.655 175.654 15.415C175.894 15.175 176.199 14.975 176.569 14.815C176.939 14.645 177.389 14.56 177.919 14.56C178.349 14.56 178.764 14.62 179.164 14.74C179.564 14.86 179.914 15.04 180.214 15.28C180.514 15.52 180.754 15.82 180.934 16.18C181.114 16.53 181.204 16.935 181.204 17.395C181.204 17.735 181.144 18.045 181.024 18.325C180.904 18.595 180.759 18.83 180.589 19.03C180.419 19.24 180.239 19.405 180.049 19.525C179.859 19.645 179.689 19.72 179.539 19.75C179.699 19.8 179.884 19.885 180.094 20.005C180.304 20.125 180.499 20.29 180.679 20.5C180.859 20.71 181.014 20.97 181.144 21.28C181.274 21.59 181.339 21.955 181.339 22.375C181.339 22.885 181.229 23.335 181.009 23.725C180.789 24.115 180.494 24.435 180.124 24.685C179.754 24.945 179.324 25.14 178.834 25.27C178.344 25.4 177.834 25.465 177.304 25.465C176.824 25.465 176.349 25.4 175.879 25.27C175.419 25.15 175.064 24.99 174.814 24.79V23.605C175.104 23.835 175.474 24.015 175.924 24.145C176.384 24.275 176.779 24.34 177.109 24.34C177.399 24.34 177.694 24.31 177.994 24.25C178.304 24.19 178.579 24.08 178.819 23.92C179.069 23.75 179.274 23.525 179.434 23.245C179.594 22.965 179.674 22.6 179.674 22.15C179.674 21.64 179.544 21.225 179.284 20.905C179.024 20.585 178.714 20.395 178.354 20.335C178.234 20.315 178.064 20.3 177.844 20.29C177.634 20.27 177.529 20.26 177.529 20.26C177.379 20.26 177.264 20.21 177.184 20.11C177.114 20 177.079 19.88 177.079 19.75C177.079 19.62 177.114 19.5 177.184 19.39C177.264 19.28 177.379 19.225 177.529 19.225C177.529 19.225 177.604 19.225 177.754 19.225C177.904 19.215 178.044 19.2 178.174 19.18C178.314 19.16 178.464 19.12 178.624 19.06C178.794 19 178.949 18.905 179.089 18.775C179.219 18.645 179.329 18.475 179.419 18.265C179.519 18.045 179.569 17.76 179.569 17.41C179.569 16.81 179.399 16.36 179.059 16.06C178.719 15.76 178.264 15.61 177.694 15.61C177.254 15.61 176.879 15.75 176.569 16.03C176.269 16.3 176.074 16.605 175.984 16.945ZM182.959 16.195C182.959 15.885 183.029 15.585 183.169 15.295C183.309 15.005 183.514 14.745 183.784 14.515C184.044 14.285 184.359 14.1 184.729 13.96C185.109 13.82 185.534 13.75 186.004 13.75C186.464 13.75 186.879 13.82 187.249 13.96C187.619 14.1 187.939 14.285 188.209 14.515C188.469 14.745 188.669 15.01 188.809 15.31C188.949 15.6 189.019 15.895 189.019 16.195C189.019 16.515 188.944 16.82 188.794 17.11C188.654 17.39 188.449 17.645 188.179 17.875C187.919 18.095 187.604 18.27 187.234 18.4C186.864 18.53 186.454 18.595 186.004 18.595C185.534 18.595 185.109 18.53 184.729 18.4C184.359 18.26 184.044 18.075 183.784 17.845C183.514 17.625 183.309 17.37 183.169 17.08C183.029 16.79 182.959 16.495 182.959 16.195ZM184.579 16.195C184.579 16.485 184.699 16.775 184.939 17.065C185.179 17.355 185.534 17.5 186.004 17.5C186.444 17.5 186.784 17.36 187.024 17.08C187.274 16.79 187.399 16.495 187.399 16.195C187.399 15.875 187.279 15.58 187.039 15.31C186.799 15.03 186.454 14.89 186.004 14.89C185.534 14.89 185.179 15.025 184.939 15.295C184.699 15.565 184.579 15.865 184.579 16.195ZM193.339 14.185V20.275C193.339 20.765 193.224 21.14 192.994 21.4C192.774 21.66 192.484 21.79 192.124 21.79H191.734V21.385H188.839C188.749 21.385 188.644 21.335 188.524 21.235C188.414 21.125 188.359 20.995 188.359 20.845C188.359 20.685 188.414 20.555 188.524 20.455C188.644 20.345 188.764 20.29 188.884 20.29H191.734V15.1C191.734 14.79 191.689 14.595 191.599 14.515C191.509 14.425 191.344 14.355 191.104 14.305C190.834 14.275 190.639 14.22 190.519 14.14C190.409 14.06 190.354 13.96 190.354 13.84C190.354 13.7 190.424 13.595 190.564 13.525C190.714 13.445 190.864 13.405 191.014 13.405H192.574C192.754 13.405 192.924 13.485 193.084 13.645C193.254 13.795 193.339 13.975 193.339 14.185ZM190.909 19.42C190.699 19.53 190.439 19.63 190.129 19.72C189.829 19.8 189.509 19.865 189.169 19.915C188.819 19.975 188.459 20.02 188.089 20.05C187.729 20.07 187.384 20.08 187.054 20.08H187.039V20.29C187.039 20.8 186.929 21.195 186.709 21.475C186.489 21.745 186.224 21.88 185.914 21.88H185.434V20.08H182.659C182.489 20.08 182.354 20.02 182.254 19.9C182.154 19.77 182.104 19.645 182.104 19.525C182.104 19.415 182.154 19.29 182.254 19.15C182.364 19.01 182.504 18.94 182.674 18.94H186.964C187.614 18.94 188.229 18.93 188.809 18.91C189.399 18.89 189.979 18.815 190.549 18.685C190.759 18.645 190.919 18.65 191.029 18.7C191.139 18.74 191.204 18.805 191.224 18.895C191.244 18.985 191.224 19.08 191.164 19.18C191.114 19.28 191.029 19.36 190.909 19.42ZM185.779 24.235H191.389V23.335H186.124C185.974 23.335 185.849 23.27 185.749 23.14C185.659 23.01 185.614 22.89 185.614 22.78C185.614 22.65 185.664 22.525 185.764 22.405C185.864 22.275 185.994 22.21 186.154 22.21H192.259C192.459 22.21 192.629 22.275 192.769 22.405C192.919 22.525 192.994 22.7 192.994 22.93V24.535C192.994 24.745 192.934 24.925 192.814 25.075C192.704 25.235 192.544 25.315 192.334 25.315H187.654V25.975C187.654 26.135 187.684 26.23 187.744 26.26C187.814 26.29 187.909 26.305 188.029 26.305H192.994C193.164 26.305 193.289 26.37 193.369 26.5C193.459 26.64 193.504 26.76 193.504 26.86C193.504 27.01 193.454 27.145 193.354 27.265C193.264 27.385 193.144 27.445 192.994 27.445H187.309C186.939 27.445 186.639 27.325 186.409 27.085C186.179 26.855 186.064 26.59 186.064 26.29V25.69C186.064 25.47 186.044 25.32 186.004 25.24C185.964 25.17 185.864 25.11 185.704 25.06C185.574 25.03 185.469 24.985 185.389 24.925C185.319 24.855 185.284 24.76 185.284 24.64C185.284 24.51 185.344 24.41 185.464 24.34C185.584 24.27 185.689 24.235 185.779 24.235ZM254.502 15.55C254.372 15.55 254.272 15.505 254.202 15.415C254.142 15.325 254.112 15.22 254.112 15.1C254.112 15.01 254.147 14.925 254.217 14.845C254.287 14.755 254.372 14.71 254.472 14.71H257.517L260.307 23.305L263.262 14.71H265.497V25.315H263.997V16.57L261.237 24.64C261.187 24.79 261.102 24.94 260.982 25.09C260.862 25.24 260.682 25.315 260.442 25.315H259.482L256.602 16.6V25.315H255.357V16.78C255.357 16.41 255.302 16.115 255.192 15.895C255.092 15.665 254.862 15.55 254.502 15.55ZM271.903 25.315V24.505C271.633 24.805 271.293 25.04 270.883 25.21C270.483 25.39 269.953 25.48 269.293 25.48C268.683 25.48 268.188 25.29 267.808 24.91C267.428 24.53 267.238 24.04 267.238 23.44C267.238 22.94 267.363 22.52 267.613 22.18C267.873 21.84 268.198 21.565 268.588 21.355C268.978 21.145 269.403 20.995 269.863 20.905C270.333 20.815 270.778 20.77 271.198 20.77C271.258 20.77 271.328 20.77 271.408 20.77C271.488 20.77 271.563 20.765 271.633 20.755C271.703 20.755 271.763 20.755 271.813 20.755C271.863 20.745 271.893 20.74 271.903 20.74V20.35C271.903 20.17 271.878 19.985 271.828 19.795C271.778 19.595 271.698 19.42 271.588 19.27C271.468 19.11 271.308 18.98 271.108 18.88C270.908 18.78 270.658 18.73 270.358 18.73C269.908 18.73 269.558 18.84 269.308 19.06C269.058 19.28 268.933 19.6 268.933 20.02H267.328C267.328 19.77 267.383 19.515 267.493 19.255C267.613 18.985 267.803 18.74 268.063 18.52C268.313 18.31 268.633 18.135 269.023 17.995C269.413 17.855 269.878 17.785 270.418 17.785C271.348 17.785 272.073 18.02 272.593 18.49C273.113 18.95 273.373 19.585 273.373 20.395V25.315H271.903ZM271.903 22.675V21.685C271.703 21.685 271.458 21.695 271.168 21.715C270.878 21.725 270.593 21.76 270.313 21.82C269.903 21.92 269.553 22.08 269.263 22.3C268.973 22.52 268.828 22.85 268.828 23.29C268.828 23.39 268.838 23.505 268.858 23.635C268.888 23.755 268.943 23.865 269.023 23.965C269.103 24.075 269.213 24.165 269.353 24.235C269.493 24.305 269.678 24.34 269.908 24.34C270.158 24.34 270.398 24.305 270.628 24.235C270.868 24.155 271.083 24.04 271.273 23.89C271.463 23.75 271.613 23.58 271.723 23.38C271.843 23.17 271.903 22.935 271.903 22.675ZM275.601 25.315V19.975C275.601 19.845 275.596 19.73 275.586 19.63C275.586 19.52 275.576 19.42 275.556 19.33C275.546 19.24 275.516 19.165 275.466 19.105C275.426 19.035 275.371 18.97 275.301 18.91C275.231 18.87 275.146 18.84 275.046 18.82C274.956 18.79 274.866 18.775 274.776 18.775C274.626 18.775 274.511 18.73 274.431 18.64C274.361 18.55 274.326 18.445 274.326 18.325C274.326 18.225 274.361 18.135 274.431 18.055C274.511 17.975 274.601 17.935 274.701 17.935H276.291C276.531 17.935 276.721 18.015 276.861 18.175C277.011 18.335 277.086 18.455 277.086 18.535V19.075C277.096 19.015 277.151 18.915 277.251 18.775C277.361 18.635 277.511 18.495 277.701 18.355C277.891 18.215 278.116 18.095 278.376 17.995C278.646 17.885 278.956 17.83 279.306 17.83H280.131V19.33C279.121 19.18 278.361 19.29 277.851 19.66C277.341 20.03 277.086 20.695 277.086 21.655V25.315H275.601ZM287.206 24.94C286.986 25.06 286.626 25.185 286.126 25.315C285.626 25.445 285.076 25.495 284.476 25.465C283.936 25.455 283.431 25.355 282.961 25.165C282.491 24.985 282.076 24.725 281.716 24.385C281.366 24.045 281.091 23.63 280.891 23.14C280.691 22.64 280.591 22.065 280.591 21.415C280.591 20.835 280.691 20.32 280.891 19.87C281.091 19.41 281.361 19.03 281.701 18.73C282.051 18.42 282.456 18.185 282.916 18.025C283.386 17.865 283.891 17.785 284.431 17.785C284.841 17.785 285.226 17.845 285.586 17.965C285.956 18.075 286.281 18.23 286.561 18.43C286.831 18.64 287.051 18.885 287.221 19.165C287.401 19.435 287.506 19.73 287.536 20.05H285.901C285.901 19.68 285.776 19.37 285.526 19.12C285.286 18.87 284.871 18.745 284.281 18.745C284.001 18.745 283.731 18.8 283.471 18.91C283.221 19.01 282.996 19.17 282.796 19.39C282.596 19.6 282.436 19.875 282.316 20.215C282.206 20.555 282.151 20.955 282.151 21.415C282.151 22.315 282.376 23.035 282.826 23.575C283.276 24.115 283.951 24.42 284.851 24.49C284.971 24.51 285.231 24.5 285.631 24.46C286.041 24.41 286.466 24.295 286.906 24.115C287.026 24.065 287.131 24.07 287.221 24.13C287.321 24.18 287.391 24.255 287.431 24.355C287.461 24.445 287.461 24.55 287.431 24.67C287.401 24.78 287.326 24.87 287.206 24.94ZM290.737 15.22V19.3C290.777 19.2 290.862 19.065 290.992 18.895C291.122 18.725 291.297 18.56 291.517 18.4C291.727 18.23 291.982 18.085 292.282 17.965C292.592 17.845 292.942 17.785 293.332 17.785C293.732 17.785 294.077 17.875 294.367 18.055C294.667 18.225 294.912 18.45 295.102 18.73C295.292 19 295.432 19.315 295.522 19.675C295.622 20.025 295.672 20.38 295.672 20.74V25.315H294.187V20.755C294.187 20.565 294.167 20.37 294.127 20.17C294.087 19.96 294.017 19.77 293.917 19.6C293.827 19.44 293.697 19.305 293.527 19.195C293.367 19.085 293.167 19.03 292.927 19.03C292.587 19.03 292.282 19.135 292.012 19.345C291.742 19.555 291.512 19.81 291.322 20.11C291.132 20.42 290.987 20.75 290.887 21.1C290.787 21.45 290.737 21.77 290.737 22.06V25.315H289.252V16.525C289.252 16.405 289.247 16.295 289.237 16.195C289.237 16.085 289.227 15.985 289.207 15.895C289.197 15.805 289.167 15.73 289.117 15.67C289.077 15.6 289.022 15.535 288.952 15.475C288.882 15.425 288.797 15.39 288.697 15.37C288.607 15.34 288.517 15.325 288.427 15.325C288.277 15.325 288.162 15.285 288.082 15.205C288.012 15.115 287.977 15.01 287.977 14.89C287.977 14.79 288.012 14.7 288.082 14.62C288.162 14.54 288.252 14.5 288.352 14.5H289.942C290.182 14.5 290.372 14.585 290.512 14.755C290.662 14.925 290.737 15.08 290.737 15.22Z" fill="#3E3E47"/>
<path d="M84.316 115.092V115.932C83.996 115.772 83.696 115.664 83.416 115.608C83.136 115.552 82.896 115.524 82.696 115.524C82.52 115.524 82.36 115.544 82.216 115.584C82.072 115.624 81.94 115.68 81.82 115.752C81.564 115.912 81.356 116.116 81.196 116.364C81.036 116.612 80.912 116.876 80.824 117.156C80.736 117.428 80.676 117.704 80.644 117.984C80.612 118.264 80.596 118.512 80.596 118.728C80.612 118.712 80.656 118.668 80.728 118.596C80.808 118.516 80.92 118.432 81.064 118.344C81.2 118.264 81.372 118.188 81.58 118.116C81.796 118.044 82.052 118.008 82.348 118.008C83.14 118.008 83.748 118.256 84.172 118.752C84.604 119.24 84.828 119.876 84.844 120.66C84.844 121.46 84.588 122.112 84.076 122.616C83.572 123.12 82.88 123.372 82 123.372C81.384 123.372 80.896 123.236 80.536 122.964C80.176 122.692 79.908 122.348 79.732 121.932C79.548 121.524 79.432 121.076 79.384 120.588C79.336 120.092 79.312 119.628 79.312 119.196C79.312 118.796 79.34 118.388 79.396 117.972C79.46 117.548 79.56 117.144 79.696 116.76C79.84 116.376 80.024 116.032 80.248 115.728C80.48 115.416 80.764 115.172 81.1 114.996C81.3 114.892 81.528 114.808 81.784 114.744C82.048 114.68 82.316 114.648 82.588 114.648C82.876 114.648 83.168 114.684 83.464 114.756C83.768 114.82 84.052 114.932 84.316 115.092ZM80.584 119.88C80.584 120.176 80.6 120.48 80.632 120.792C80.664 121.104 80.732 121.388 80.836 121.644C80.932 121.9 81.076 122.112 81.268 122.28C81.468 122.448 81.736 122.532 82.072 122.532C82.592 122.54 82.968 122.364 83.2 122.004C83.432 121.644 83.548 121.212 83.548 120.708C83.548 120.22 83.444 119.796 83.236 119.436C83.036 119.068 82.708 118.884 82.252 118.884C82.076 118.884 81.904 118.92 81.736 118.992C81.576 119.056 81.424 119.136 81.28 119.232C81.136 119.336 81.004 119.448 80.884 119.568C80.764 119.68 80.664 119.784 80.584 119.88Z" fill="#3E3E47"/>
<path d="M78.592 156.252V149.976C78.592 149.624 78.552 149.384 78.472 149.256C78.4 149.12 78.2 149.112 77.872 149.232C77.808 149.256 77.748 149.28 77.692 149.304C77.636 149.32 77.608 149.328 77.608 149.328C77.512 149.36 77.424 149.356 77.344 149.316C77.272 149.268 77.22 149.208 77.188 149.136C77.148 149.064 77.136 148.988 77.152 148.908C77.176 148.828 77.24 148.764 77.344 148.716L79.24 147.648H79.828V156.252H78.592ZM83.26 149.556H82.396C82.412 149.38 82.468 149.18 82.564 148.956C82.66 148.732 82.804 148.524 82.996 148.332C83.188 148.14 83.432 147.98 83.728 147.852C84.024 147.716 84.384 147.648 84.808 147.648C85.152 147.648 85.484 147.696 85.804 147.792C86.124 147.888 86.404 148.032 86.644 148.224C86.884 148.416 87.076 148.656 87.22 148.944C87.364 149.224 87.436 149.548 87.436 149.916C87.436 150.188 87.388 150.436 87.292 150.66C87.196 150.876 87.08 151.064 86.944 151.224C86.808 151.392 86.664 151.524 86.512 151.62C86.36 151.716 86.224 151.776 86.104 151.8C86.232 151.84 86.38 151.908 86.548 152.004C86.716 152.1 86.872 152.232 87.016 152.4C87.16 152.568 87.284 152.776 87.388 153.024C87.492 153.272 87.544 153.564 87.544 153.9C87.544 154.308 87.456 154.668 87.28 154.98C87.104 155.292 86.868 155.548 86.572 155.748C86.276 155.956 85.932 156.112 85.54 156.216C85.148 156.32 84.74 156.372 84.316 156.372C83.932 156.372 83.552 156.32 83.176 156.216C82.808 156.12 82.524 155.992 82.324 155.832V154.884C82.556 155.068 82.852 155.212 83.212 155.316C83.58 155.42 83.896 155.472 84.16 155.472C84.392 155.472 84.628 155.448 84.868 155.4C85.116 155.352 85.336 155.264 85.528 155.136C85.728 155 85.892 154.82 86.02 154.596C86.148 154.372 86.212 154.08 86.212 153.72C86.212 153.312 86.108 152.98 85.9 152.724C85.692 152.468 85.444 152.316 85.156 152.268C85.06 152.252 84.924 152.24 84.748 152.232C84.58 152.216 84.496 152.208 84.496 152.208C84.376 152.208 84.284 152.168 84.22 152.088C84.164 152 84.136 151.904 84.136 151.8C84.136 151.696 84.164 151.6 84.22 151.512C84.284 151.424 84.376 151.38 84.496 151.38C84.496 151.38 84.556 151.38 84.676 151.38C84.796 151.372 84.908 151.36 85.012 151.344C85.124 151.328 85.244 151.296 85.372 151.248C85.508 151.2 85.632 151.124 85.744 151.02C85.848 150.916 85.936 150.78 86.008 150.612C86.088 150.436 86.128 150.208 86.128 149.928C86.128 149.448 85.992 149.088 85.72 148.848C85.448 148.608 85.084 148.488 84.628 148.488C84.276 148.488 83.976 148.6 83.728 148.824C83.488 149.04 83.332 149.284 83.26 149.556Z" fill="#3E3E47"/>
<path d="M76.372 190.252V189.592C76.404 189.56 76.44 189.528 76.48 189.496C76.52 189.456 76.56 189.416 76.6 189.376C76.648 189.336 76.692 189.292 76.732 189.244C76.78 189.196 76.836 189.144 76.9 189.088C77.06 188.936 77.244 188.744 77.452 188.512C77.668 188.272 77.888 188.012 78.112 187.732C78.336 187.46 78.556 187.18 78.772 186.892C78.988 186.604 79.18 186.324 79.348 186.052C79.54 185.74 79.708 185.404 79.852 185.044C79.996 184.676 80.068 184.292 80.068 183.892C80.068 183.508 79.956 183.188 79.732 182.932C79.508 182.668 79.14 182.536 78.628 182.536C78.404 182.536 78.208 182.58 78.04 182.668C77.872 182.748 77.732 182.852 77.62 182.98C77.5 183.1 77.408 183.236 77.344 183.388C77.28 183.54 77.244 183.684 77.236 183.82H76.204C76.212 183.572 76.268 183.32 76.372 183.064C76.476 182.8 76.632 182.564 76.84 182.356C77.04 182.148 77.296 181.98 77.608 181.852C77.928 181.716 78.304 181.648 78.736 181.648C79.576 181.648 80.224 181.872 80.68 182.32C81.144 182.768 81.376 183.392 81.376 184.192C81.376 184.504 81.292 184.856 81.124 185.248C80.964 185.64 80.76 186.004 80.512 186.34C80.288 186.644 80.036 186.96 79.756 187.288C79.484 187.616 79.22 187.928 78.964 188.224C78.7 188.512 78.464 188.764 78.256 188.98C78.048 189.196 77.9 189.34 77.812 189.412H79.744C80.088 189.412 80.352 189.36 80.536 189.256C80.72 189.152 80.856 188.884 80.944 188.452C80.96 188.372 81.004 188.316 81.076 188.284C81.148 188.244 81.22 188.228 81.292 188.236C81.372 188.244 81.44 188.272 81.496 188.32C81.56 188.36 81.592 188.412 81.592 188.476L81.472 190.252H76.372ZM85 190.372C84.504 190.372 84.08 190.256 83.728 190.024C83.376 189.792 83.092 189.476 82.876 189.076C82.652 188.676 82.488 188.208 82.384 187.672C82.288 187.136 82.24 186.568 82.24 185.968C82.24 185.464 82.284 184.956 82.372 184.444C82.468 183.924 82.624 183.46 82.84 183.052C83.048 182.636 83.328 182.3 83.68 182.044C84.032 181.78 84.468 181.648 84.988 181.648C85.492 181.648 85.92 181.776 86.272 182.032C86.632 182.288 86.92 182.62 87.136 183.028C87.36 183.436 87.52 183.9 87.616 184.42C87.72 184.932 87.772 185.448 87.772 185.968C87.772 186.504 87.72 187.036 87.616 187.564C87.52 188.084 87.364 188.552 87.148 188.968C86.924 189.392 86.636 189.732 86.284 189.988C85.932 190.244 85.504 190.372 85 190.372ZM83.524 185.968C83.524 186.376 83.544 186.792 83.584 187.216C83.632 187.632 83.712 188.012 83.824 188.356C83.936 188.7 84.088 188.98 84.28 189.196C84.472 189.412 84.716 189.52 85.012 189.52C85.308 189.52 85.552 189.408 85.744 189.184C85.936 188.952 86.088 188.66 86.2 188.308C86.312 187.964 86.388 187.584 86.428 187.168C86.476 186.744 86.5 186.344 86.5 185.968C86.5 185.528 86.472 185.1 86.416 184.684C86.36 184.268 86.272 183.896 86.152 183.568C86.032 183.24 85.876 182.976 85.684 182.776C85.492 182.576 85.26 182.476 84.988 182.476C84.692 182.476 84.448 182.58 84.256 182.788C84.064 182.988 83.916 183.252 83.812 183.58C83.7 183.908 83.624 184.28 83.584 184.696C83.544 185.112 83.524 185.536 83.524 185.968Z" fill="#3E3E47"/>
<path d="M76.372 222.252V221.592C76.404 221.56 76.44 221.528 76.48 221.496C76.52 221.456 76.56 221.416 76.6 221.376C76.648 221.336 76.692 221.292 76.732 221.244C76.78 221.196 76.836 221.144 76.9 221.088C77.06 220.936 77.244 220.744 77.452 220.512C77.668 220.272 77.888 220.012 78.112 219.732C78.336 219.46 78.556 219.18 78.772 218.892C78.988 218.604 79.18 218.324 79.348 218.052C79.54 217.74 79.708 217.404 79.852 217.044C79.996 216.676 80.068 216.292 80.068 215.892C80.068 215.508 79.956 215.188 79.732 214.932C79.508 214.668 79.14 214.536 78.628 214.536C78.404 214.536 78.208 214.58 78.04 214.668C77.872 214.748 77.732 214.852 77.62 214.98C77.5 215.1 77.408 215.236 77.344 215.388C77.28 215.54 77.244 215.684 77.236 215.82H76.204C76.212 215.572 76.268 215.32 76.372 215.064C76.476 214.8 76.632 214.564 76.84 214.356C77.04 214.148 77.296 213.98 77.608 213.852C77.928 213.716 78.304 213.648 78.736 213.648C79.576 213.648 80.224 213.872 80.68 214.32C81.144 214.768 81.376 215.392 81.376 216.192C81.376 216.504 81.292 216.856 81.124 217.248C80.964 217.64 80.76 218.004 80.512 218.34C80.288 218.644 80.036 218.96 79.756 219.288C79.484 219.616 79.22 219.928 78.964 220.224C78.7 220.512 78.464 220.764 78.256 220.98C78.048 221.196 77.9 221.34 77.812 221.412H79.744C80.088 221.412 80.352 221.36 80.536 221.256C80.72 221.152 80.856 220.884 80.944 220.452C80.96 220.372 81.004 220.316 81.076 220.284C81.148 220.244 81.22 220.228 81.292 220.236C81.372 220.244 81.44 220.272 81.496 220.32C81.56 220.36 81.592 220.412 81.592 220.476L81.472 222.252H76.372ZM83.5 222.252L86.32 214.608H83.848C83.72 214.608 83.604 214.64 83.5 214.704C83.404 214.768 83.308 214.88 83.212 215.04C83.18 215.112 83.144 215.216 83.104 215.352C83.072 215.488 83.056 215.556 83.056 215.556C83.032 215.668 82.98 215.748 82.9 215.796C82.828 215.844 82.752 215.864 82.672 215.856C82.584 215.848 82.504 215.816 82.432 215.76C82.368 215.704 82.336 215.628 82.336 215.532L82.396 213.768H87.7V214.38L84.76 222.252H83.5Z" fill="#3E3E47"/>
<path d="M131.295 61.96C131.199 61.936 131.131 61.896 131.091 61.84C131.051 61.784 131.051 61.708 131.091 61.612C131.131 61.516 131.207 61.456 131.319 61.432C131.439 61.408 131.523 61.396 131.571 61.396C131.987 61.396 132.359 61.524 132.687 61.78C133.023 62.028 133.191 62.384 133.191 62.848C133.191 63.336 133.031 63.74 132.711 64.06C132.399 64.38 132.019 64.588 131.571 64.684V65.584C132.075 65.584 132.547 65.576 132.987 65.56C133.435 65.536 133.871 65.464 134.295 65.344C134.455 65.304 134.579 65.304 134.667 65.344C134.755 65.376 134.807 65.428 134.823 65.5C134.839 65.572 134.823 65.652 134.775 65.74C134.735 65.82 134.671 65.884 134.583 65.932C134.415 66.028 134.211 66.112 133.971 66.184C133.731 66.248 133.471 66.304 133.191 66.352C132.919 66.4 132.635 66.436 132.339 66.46C132.043 66.476 131.755 66.484 131.475 66.484H128.079C127.943 66.484 127.839 66.436 127.767 66.34C127.695 66.236 127.659 66.132 127.659 66.028C127.659 65.94 127.699 65.844 127.779 65.74C127.867 65.636 127.971 65.584 128.091 65.584H130.287V64.66C129.815 64.54 129.431 64.304 129.135 63.952C128.839 63.592 128.691 63.184 128.691 62.728C128.691 62.424 128.751 62.14 128.871 61.876C128.999 61.604 129.195 61.364 129.459 61.156H128.187C128.083 61.156 127.999 61.104 127.935 61C127.871 60.888 127.839 60.784 127.839 60.688C127.839 60.6 127.871 60.512 127.935 60.424C128.007 60.328 128.099 60.28 128.211 60.28H133.323C133.443 60.28 133.543 60.328 133.623 60.424C133.703 60.52 133.743 60.612 133.743 60.7C133.743 60.796 133.703 60.896 133.623 61C133.543 61.104 133.443 61.156 133.323 61.156H131.307C130.891 61.212 130.567 61.372 130.335 61.636C130.103 61.892 129.987 62.224 129.987 62.632C129.987 63.008 130.079 63.296 130.263 63.496C130.455 63.696 130.687 63.796 130.959 63.796C131.223 63.796 131.443 63.712 131.619 63.544C131.795 63.376 131.883 63.148 131.883 62.86C131.883 62.596 131.835 62.4 131.739 62.272C131.651 62.136 131.503 62.032 131.295 61.96ZM129.951 59.344L129.315 58.876C129.211 58.804 129.155 58.716 129.147 58.612C129.147 58.5 129.187 58.396 129.267 58.3C129.339 58.228 129.435 58.2 129.555 58.216C129.683 58.224 129.807 58.252 129.927 58.3C130.087 58.38 130.227 58.448 130.347 58.504C130.467 58.552 130.587 58.588 130.707 58.612C130.827 58.644 130.963 58.668 131.115 58.684C131.267 58.692 131.455 58.696 131.679 58.696C131.847 58.696 131.979 58.74 132.075 58.828C132.179 58.908 132.231 59.008 132.231 59.128C132.231 59.264 132.167 59.368 132.039 59.44C131.919 59.512 131.799 59.548 131.679 59.548H130.827C130.611 59.548 130.435 59.532 130.299 59.5C130.171 59.468 130.055 59.416 129.951 59.344ZM136.383 58.36V61.6H138.015C138.111 61.6 138.207 61.648 138.303 61.744C138.407 61.832 138.459 61.94 138.459 62.068C138.459 62.188 138.411 62.296 138.315 62.392C138.219 62.48 138.127 62.524 138.039 62.524H136.383V67.06C136.383 67.46 136.295 67.764 136.119 67.972C135.943 68.18 135.711 68.284 135.423 68.284H135.099V59.08C135.099 58.84 135.063 58.688 134.991 58.624C134.927 58.552 134.799 58.496 134.607 58.456C134.391 58.432 134.235 58.388 134.139 58.324C134.051 58.26 134.007 58.18 134.007 58.084C134.007 57.972 134.059 57.884 134.163 57.82C134.275 57.756 134.391 57.724 134.511 57.724H135.783C135.927 57.724 136.063 57.792 136.191 57.928C136.319 58.064 136.383 58.208 136.383 58.36Z" fill="#3E3E47"/>
<path d="M131.5 123.252L134.32 115.608H131.848C131.72 115.608 131.604 115.64 131.5 115.704C131.404 115.768 131.308 115.88 131.212 116.04C131.18 116.112 131.144 116.216 131.104 116.352C131.072 116.488 131.056 116.556 131.056 116.556C131.032 116.668 130.98 116.748 130.9 116.796C130.828 116.844 130.752 116.864 130.672 116.856C130.584 116.848 130.504 116.816 130.432 116.76C130.368 116.704 130.336 116.628 130.336 116.532L130.396 114.768H135.7V115.38L132.76 123.252H131.5Z" fill="#3E3E47"/>
<path d="M129.592 156.252V149.976C129.592 149.624 129.552 149.384 129.472 149.256C129.4 149.12 129.2 149.112 128.872 149.232C128.808 149.256 128.748 149.28 128.692 149.304C128.636 149.32 128.608 149.328 128.608 149.328C128.512 149.36 128.424 149.356 128.344 149.316C128.272 149.268 128.22 149.208 128.188 149.136C128.148 149.064 128.136 148.988 128.152 148.908C128.176 148.828 128.24 148.764 128.344 148.716L130.24 147.648H130.828V156.252H129.592ZM136.564 156.252V153.984H133.096V153.18L136.576 147.648H137.764V153.06H138.916V153.984H137.764V156.252H136.564ZM136.564 149.448L134.32 153.06H136.564V149.448Z" fill="#3E3E47"/>
<path d="M127.372 190.252V189.592C127.404 189.56 127.44 189.528 127.48 189.496C127.52 189.456 127.56 189.416 127.6 189.376C127.648 189.336 127.692 189.292 127.732 189.244C127.78 189.196 127.836 189.144 127.9 189.088C128.06 188.936 128.244 188.744 128.452 188.512C128.668 188.272 128.888 188.012 129.112 187.732C129.336 187.46 129.556 187.18 129.772 186.892C129.988 186.604 130.18 186.324 130.348 186.052C130.54 185.74 130.708 185.404 130.852 185.044C130.996 184.676 131.068 184.292 131.068 183.892C131.068 183.508 130.956 183.188 130.732 182.932C130.508 182.668 130.14 182.536 129.628 182.536C129.404 182.536 129.208 182.58 129.04 182.668C128.872 182.748 128.732 182.852 128.62 182.98C128.5 183.1 128.408 183.236 128.344 183.388C128.28 183.54 128.244 183.684 128.236 183.82H127.204C127.212 183.572 127.268 183.32 127.372 183.064C127.476 182.8 127.632 182.564 127.84 182.356C128.04 182.148 128.296 181.98 128.608 181.852C128.928 181.716 129.304 181.648 129.736 181.648C130.576 181.648 131.224 181.872 131.68 182.32C132.144 182.768 132.376 183.392 132.376 184.192C132.376 184.504 132.292 184.856 132.124 185.248C131.964 185.64 131.76 186.004 131.512 186.34C131.288 186.644 131.036 186.96 130.756 187.288C130.484 187.616 130.22 187.928 129.964 188.224C129.7 188.512 129.464 188.764 129.256 188.98C129.048 189.196 128.9 189.34 128.812 189.412H130.744C131.088 189.412 131.352 189.36 131.536 189.256C131.72 189.152 131.856 188.884 131.944 188.452C131.96 188.372 132.004 188.316 132.076 188.284C132.148 188.244 132.22 188.228 132.292 188.236C132.372 188.244 132.44 188.272 132.496 188.32C132.56 188.36 132.592 188.412 132.592 188.476L132.472 190.252H127.372ZM135.592 190.252V183.976C135.592 183.624 135.552 183.384 135.472 183.256C135.4 183.12 135.2 183.112 134.872 183.232C134.808 183.256 134.748 183.28 134.692 183.304C134.636 183.32 134.608 183.328 134.608 183.328C134.512 183.36 134.424 183.356 134.344 183.316C134.272 183.268 134.22 183.208 134.188 183.136C134.148 183.064 134.136 182.988 134.152 182.908C134.176 182.828 134.24 182.764 134.344 182.716L136.24 181.648H136.828V190.252H135.592Z" fill="#3E3E47"/>
<path d="M127.372 222.252V221.592C127.404 221.56 127.44 221.528 127.48 221.496C127.52 221.456 127.56 221.416 127.6 221.376C127.648 221.336 127.692 221.292 127.732 221.244C127.78 221.196 127.836 221.144 127.9 221.088C128.06 220.936 128.244 220.744 128.452 220.512C128.668 220.272 128.888 220.012 129.112 219.732C129.336 219.46 129.556 219.18 129.772 218.892C129.988 218.604 130.18 218.324 130.348 218.052C130.54 217.74 130.708 217.404 130.852 217.044C130.996 216.676 131.068 216.292 131.068 215.892C131.068 215.508 130.956 215.188 130.732 214.932C130.508 214.668 130.14 214.536 129.628 214.536C129.404 214.536 129.208 214.58 129.04 214.668C128.872 214.748 128.732 214.852 128.62 214.98C128.5 215.1 128.408 215.236 128.344 215.388C128.28 215.54 128.244 215.684 128.236 215.82H127.204C127.212 215.572 127.268 215.32 127.372 215.064C127.476 214.8 127.632 214.564 127.84 214.356C128.04 214.148 128.296 213.98 128.608 213.852C128.928 213.716 129.304 213.648 129.736 213.648C130.576 213.648 131.224 213.872 131.68 214.32C132.144 214.768 132.376 215.392 132.376 216.192C132.376 216.504 132.292 216.856 132.124 217.248C131.964 217.64 131.76 218.004 131.512 218.34C131.288 218.644 131.036 218.96 130.756 219.288C130.484 219.616 130.22 219.928 129.964 220.224C129.7 220.512 129.464 220.764 129.256 220.98C129.048 221.196 128.9 221.34 128.812 221.412H130.744C131.088 221.412 131.352 221.36 131.536 221.256C131.72 221.152 131.856 220.884 131.944 220.452C131.96 220.372 132.004 220.316 132.076 220.284C132.148 220.244 132.22 220.228 132.292 220.236C132.372 220.244 132.44 220.272 132.496 220.32C132.56 220.36 132.592 220.412 132.592 220.476L132.472 222.252H127.372ZM135.976 222.372C135.544 222.372 135.16 222.312 134.824 222.192C134.488 222.072 134.2 221.904 133.96 221.688C133.728 221.472 133.552 221.216 133.432 220.92C133.312 220.624 133.252 220.304 133.252 219.96C133.252 219.64 133.296 219.352 133.384 219.096C133.48 218.832 133.6 218.604 133.744 218.412C133.888 218.228 134.044 218.08 134.212 217.968C134.388 217.856 134.552 217.78 134.704 217.74C134.592 217.708 134.464 217.652 134.32 217.572C134.176 217.484 134.036 217.36 133.9 217.2C133.772 217.048 133.66 216.86 133.564 216.636C133.476 216.404 133.432 216.124 133.432 215.796C133.432 215.5 133.492 215.22 133.612 214.956C133.732 214.692 133.9 214.464 134.116 214.272C134.34 214.08 134.608 213.928 134.92 213.816C135.232 213.704 135.58 213.648 135.964 213.648C136.324 213.648 136.656 213.696 136.96 213.792C137.272 213.888 137.544 214.028 137.776 214.212C138.008 214.404 138.188 214.636 138.316 214.908C138.452 215.18 138.52 215.496 138.52 215.856C138.52 216.136 138.476 216.384 138.388 216.6C138.3 216.816 138.188 217.004 138.052 217.164C137.924 217.324 137.784 217.456 137.632 217.56C137.488 217.656 137.356 217.72 137.236 217.752C137.364 217.784 137.516 217.848 137.692 217.944C137.868 218.032 138.032 218.16 138.184 218.328C138.336 218.504 138.464 218.72 138.568 218.976C138.68 219.224 138.736 219.524 138.736 219.876C138.736 220.612 138.484 221.212 137.98 221.676C137.484 222.14 136.816 222.372 135.976 222.372ZM134.668 215.844C134.668 216.036 134.692 216.224 134.74 216.408C134.788 216.592 134.868 216.756 134.98 216.9C135.084 217.044 135.216 217.16 135.376 217.248C135.544 217.336 135.74 217.38 135.964 217.38C136.388 217.38 136.708 217.256 136.924 217.008C137.148 216.76 137.26 216.372 137.26 215.844C137.26 215.412 137.148 215.064 136.924 214.8C136.708 214.536 136.388 214.404 135.964 214.404C135.548 214.404 135.228 214.532 135.004 214.788C134.78 215.036 134.668 215.388 134.668 215.844ZM134.548 219.9C134.548 220.404 134.664 220.812 134.896 221.124C135.128 221.428 135.484 221.58 135.964 221.58C136.38 221.58 136.732 221.44 137.02 221.16C137.308 220.872 137.452 220.448 137.452 219.888C137.452 219.328 137.316 218.896 137.044 218.592C136.78 218.288 136.42 218.136 135.964 218.136C135.508 218.136 135.156 218.296 134.908 218.616C134.668 218.928 134.548 219.356 134.548 219.9Z" fill="#3E3E47"/>
<path d="M185.922 59.248C185.874 59.4 185.814 59.552 185.742 59.704C185.678 59.856 185.598 60.004 185.502 60.148L188.13 61.624C188.298 61.72 188.402 61.828 188.442 61.948C188.482 62.068 188.502 62.152 188.502 62.2C188.494 62.328 188.45 62.444 188.37 62.548C188.298 62.644 188.214 62.704 188.118 62.728C188.014 62.76 187.906 62.768 187.794 62.752C187.69 62.736 187.586 62.692 187.482 62.62L184.914 60.892C184.698 61.124 184.466 61.344 184.218 61.552C183.97 61.752 183.722 61.936 183.474 62.104C183.226 62.264 182.982 62.404 182.742 62.524C182.51 62.644 182.298 62.728 182.106 62.776C181.97 62.816 181.854 62.82 181.758 62.788C181.662 62.756 181.594 62.708 181.554 62.644C181.514 62.572 181.506 62.496 181.53 62.416C181.562 62.336 181.638 62.268 181.758 62.212C181.974 62.108 182.218 61.948 182.49 61.732C182.77 61.516 183.042 61.272 183.306 61C183.562 60.728 183.79 60.448 183.99 60.16C184.19 59.872 184.326 59.6 184.398 59.344C184.414 59.256 184.402 59.192 184.362 59.152C184.322 59.112 184.21 59.072 184.026 59.032C183.874 59.008 183.774 58.96 183.726 58.888C183.678 58.808 183.658 58.732 183.666 58.66C183.666 58.588 183.706 58.516 183.786 58.444C183.866 58.372 183.966 58.336 184.086 58.336H185.154C185.466 58.336 185.682 58.436 185.802 58.636C185.93 58.828 185.97 59.032 185.922 59.248ZM180.282 63.64H189.834C189.986 63.64 190.098 63.692 190.17 63.796C190.25 63.9 190.29 63.992 190.29 64.072C190.29 64.184 190.246 64.288 190.158 64.384C190.078 64.48 189.97 64.528 189.834 64.528H185.682V67.072C185.682 67.496 185.598 67.808 185.43 68.008C185.262 68.216 185.058 68.32 184.818 68.32H184.458V64.528H180.282C180.154 64.528 180.046 64.48 179.958 64.384C179.878 64.28 179.838 64.176 179.838 64.072C179.838 63.992 179.878 63.9 179.958 63.796C180.046 63.692 180.154 63.64 180.282 63.64Z" fill="#3E3E47"/>
<path d="M184.592 90.252V83.976C184.592 83.624 184.552 83.384 184.472 83.256C184.4 83.12 184.2 83.112 183.872 83.232C183.808 83.256 183.748 83.28 183.692 83.304C183.636 83.32 183.608 83.328 183.608 83.328C183.512 83.36 183.424 83.356 183.344 83.316C183.272 83.268 183.22 83.208 183.188 83.136C183.148 83.064 183.136 82.988 183.152 82.908C183.176 82.828 183.24 82.764 183.344 82.716L185.24 81.648H185.828V90.252H184.592Z" fill="#FF0000"/>
<path d="M184.976 123.372C184.544 123.372 184.16 123.312 183.824 123.192C183.488 123.072 183.2 122.904 182.96 122.688C182.728 122.472 182.552 122.216 182.432 121.92C182.312 121.624 182.252 121.304 182.252 120.96C182.252 120.64 182.296 120.352 182.384 120.096C182.48 119.832 182.6 119.604 182.744 119.412C182.888 119.228 183.044 119.08 183.212 118.968C183.388 118.856 183.552 118.78 183.704 118.74C183.592 118.708 183.464 118.652 183.32 118.572C183.176 118.484 183.036 118.36 182.9 118.2C182.772 118.048 182.66 117.86 182.564 117.636C182.476 117.404 182.432 117.124 182.432 116.796C182.432 116.5 182.492 116.22 182.612 115.956C182.732 115.692 182.9 115.464 183.116 115.272C183.34 115.08 183.608 114.928 183.92 114.816C184.232 114.704 184.58 114.648 184.964 114.648C185.324 114.648 185.656 114.696 185.96 114.792C186.272 114.888 186.544 115.028 186.776 115.212C187.008 115.404 187.188 115.636 187.316 115.908C187.452 116.18 187.52 116.496 187.52 116.856C187.52 117.136 187.476 117.384 187.388 117.6C187.3 117.816 187.188 118.004 187.052 118.164C186.924 118.324 186.784 118.456 186.632 118.56C186.488 118.656 186.356 118.72 186.236 118.752C186.364 118.784 186.516 118.848 186.692 118.944C186.868 119.032 187.032 119.16 187.184 119.328C187.336 119.504 187.464 119.72 187.568 119.976C187.68 120.224 187.736 120.524 187.736 120.876C187.736 121.612 187.484 122.212 186.98 122.676C186.484 123.14 185.816 123.372 184.976 123.372ZM183.668 116.844C183.668 117.036 183.692 117.224 183.74 117.408C183.788 117.592 183.868 117.756 183.98 117.9C184.084 118.044 184.216 118.16 184.376 118.248C184.544 118.336 184.74 118.38 184.964 118.38C185.388 118.38 185.708 118.256 185.924 118.008C186.148 117.76 186.26 117.372 186.26 116.844C186.26 116.412 186.148 116.064 185.924 115.8C185.708 115.536 185.388 115.404 184.964 115.404C184.548 115.404 184.228 115.532 184.004 115.788C183.78 116.036 183.668 116.388 183.668 116.844ZM183.548 120.9C183.548 121.404 183.664 121.812 183.896 122.124C184.128 122.428 184.484 122.58 184.964 122.58C185.38 122.58 185.732 122.44 186.02 122.16C186.308 121.872 186.452 121.448 186.452 120.888C186.452 120.328 186.316 119.896 186.044 119.592C185.78 119.288 185.42 119.136 184.964 119.136C184.508 119.136 184.156 119.296 183.908 119.616C183.668 119.928 183.548 120.356 183.548 120.9Z" fill="#3E3E47"/>
<path d="M181.592 156.252V149.976C181.592 149.624 181.552 149.384 181.472 149.256C181.4 149.12 181.2 149.112 180.872 149.232C180.808 149.256 180.748 149.28 180.692 149.304C180.636 149.32 180.608 149.328 180.608 149.328C180.512 149.36 180.424 149.356 180.344 149.316C180.272 149.268 180.22 149.208 180.188 149.136C180.148 149.064 180.136 148.988 180.152 148.908C180.176 148.828 180.24 148.764 180.344 148.716L182.24 147.648H182.828V156.252H181.592ZM186.956 148.692L186.812 151.188C186.86 151.156 186.996 151.1 187.22 151.02C187.444 150.932 187.7 150.884 187.988 150.876C188.38 150.868 188.74 150.928 189.068 151.056C189.404 151.176 189.692 151.356 189.932 151.596C190.172 151.828 190.356 152.108 190.484 152.436C190.62 152.764 190.688 153.12 190.688 153.504C190.688 153.976 190.6 154.392 190.424 154.752C190.248 155.104 190.012 155.4 189.716 155.64C189.42 155.88 189.084 156.06 188.708 156.18C188.332 156.308 187.94 156.372 187.532 156.372C187.076 156.372 186.672 156.332 186.32 156.252C185.976 156.172 185.672 156.04 185.408 155.856V154.92C185.696 155.112 186.028 155.248 186.404 155.328C186.788 155.408 187.128 155.448 187.424 155.448C188.048 155.448 188.528 155.26 188.864 154.884C189.208 154.5 189.38 154.02 189.38 153.444C189.38 152.996 189.244 152.604 188.972 152.268C188.708 151.924 188.36 151.752 187.928 151.752C187.664 151.752 187.404 151.812 187.148 151.932C186.892 152.052 186.692 152.22 186.548 152.436H185.624L185.852 147.768H190.112V148.692H186.956Z" fill="#3E3E47"/>
<path d="M179.372 190.252V189.592C179.404 189.56 179.44 189.528 179.48 189.496C179.52 189.456 179.56 189.416 179.6 189.376C179.648 189.336 179.692 189.292 179.732 189.244C179.78 189.196 179.836 189.144 179.9 189.088C180.06 188.936 180.244 188.744 180.452 188.512C180.668 188.272 180.888 188.012 181.112 187.732C181.336 187.46 181.556 187.18 181.772 186.892C181.988 186.604 182.18 186.324 182.348 186.052C182.54 185.74 182.708 185.404 182.852 185.044C182.996 184.676 183.068 184.292 183.068 183.892C183.068 183.508 182.956 183.188 182.732 182.932C182.508 182.668 182.14 182.536 181.628 182.536C181.404 182.536 181.208 182.58 181.04 182.668C180.872 182.748 180.732 182.852 180.62 182.98C180.5 183.1 180.408 183.236 180.344 183.388C180.28 183.54 180.244 183.684 180.236 183.82H179.204C179.212 183.572 179.268 183.32 179.372 183.064C179.476 182.8 179.632 182.564 179.84 182.356C180.04 182.148 180.296 181.98 180.608 181.852C180.928 181.716 181.304 181.648 181.736 181.648C182.576 181.648 183.224 181.872 183.68 182.32C184.144 182.768 184.376 183.392 184.376 184.192C184.376 184.504 184.292 184.856 184.124 185.248C183.964 185.64 183.76 186.004 183.512 186.34C183.288 186.644 183.036 186.96 182.756 187.288C182.484 187.616 182.22 187.928 181.964 188.224C181.7 188.512 181.464 188.764 181.256 188.98C181.048 189.196 180.9 189.34 180.812 189.412H182.744C183.088 189.412 183.352 189.36 183.536 189.256C183.72 189.152 183.856 188.884 183.944 188.452C183.96 188.372 184.004 188.316 184.076 188.284C184.148 188.244 184.22 188.228 184.292 188.236C184.372 188.244 184.44 188.272 184.496 188.32C184.56 188.36 184.592 188.412 184.592 188.476L184.472 190.252H179.372ZM185.372 190.252V189.592C185.404 189.56 185.44 189.528 185.48 189.496C185.52 189.456 185.56 189.416 185.6 189.376C185.648 189.336 185.692 189.292 185.732 189.244C185.78 189.196 185.836 189.144 185.9 189.088C186.06 188.936 186.244 188.744 186.452 188.512C186.668 188.272 186.888 188.012 187.112 187.732C187.336 187.46 187.556 187.18 187.772 186.892C187.988 186.604 188.18 186.324 188.348 186.052C188.54 185.74 188.708 185.404 188.852 185.044C188.996 184.676 189.068 184.292 189.068 183.892C189.068 183.508 188.956 183.188 188.732 182.932C188.508 182.668 188.14 182.536 187.628 182.536C187.404 182.536 187.208 182.58 187.04 182.668C186.872 182.748 186.732 182.852 186.62 182.98C186.5 183.1 186.408 183.236 186.344 183.388C186.28 183.54 186.244 183.684 186.236 183.82H185.204C185.212 183.572 185.268 183.32 185.372 183.064C185.476 182.8 185.632 182.564 185.84 182.356C186.04 182.148 186.296 181.98 186.608 181.852C186.928 181.716 187.304 181.648 187.736 181.648C188.576 181.648 189.224 181.872 189.68 182.32C190.144 182.768 190.376 183.392 190.376 184.192C190.376 184.504 190.292 184.856 190.124 185.248C189.964 185.64 189.76 186.004 189.512 186.34C189.288 186.644 189.036 186.96 188.756 187.288C188.484 187.616 188.22 187.928 187.964 188.224C187.7 188.512 187.464 188.764 187.256 188.98C187.048 189.196 186.9 189.34 186.812 189.412H188.744C189.088 189.412 189.352 189.36 189.536 189.256C189.72 189.152 189.856 188.884 189.944 188.452C189.96 188.372 190.004 188.316 190.076 188.284C190.148 188.244 190.22 188.228 190.292 188.236C190.372 188.244 190.44 188.272 190.496 188.32C190.56 188.36 190.592 188.412 190.592 188.476L190.472 190.252H185.372Z" fill="#3E3E47"/>
<path d="M179.372 222.252V221.592C179.404 221.56 179.44 221.528 179.48 221.496C179.52 221.456 179.56 221.416 179.6 221.376C179.648 221.336 179.692 221.292 179.732 221.244C179.78 221.196 179.836 221.144 179.9 221.088C180.06 220.936 180.244 220.744 180.452 220.512C180.668 220.272 180.888 220.012 181.112 219.732C181.336 219.46 181.556 219.18 181.772 218.892C181.988 218.604 182.18 218.324 182.348 218.052C182.54 217.74 182.708 217.404 182.852 217.044C182.996 216.676 183.068 216.292 183.068 215.892C183.068 215.508 182.956 215.188 182.732 214.932C182.508 214.668 182.14 214.536 181.628 214.536C181.404 214.536 181.208 214.58 181.04 214.668C180.872 214.748 180.732 214.852 180.62 214.98C180.5 215.1 180.408 215.236 180.344 215.388C180.28 215.54 180.244 215.684 180.236 215.82H179.204C179.212 215.572 179.268 215.32 179.372 215.064C179.476 214.8 179.632 214.564 179.84 214.356C180.04 214.148 180.296 213.98 180.608 213.852C180.928 213.716 181.304 213.648 181.736 213.648C182.576 213.648 183.224 213.872 183.68 214.32C184.144 214.768 184.376 215.392 184.376 216.192C184.376 216.504 184.292 216.856 184.124 217.248C183.964 217.64 183.76 218.004 183.512 218.34C183.288 218.644 183.036 218.96 182.756 219.288C182.484 219.616 182.22 219.928 181.964 220.224C181.7 220.512 181.464 220.764 181.256 220.98C181.048 221.196 180.9 221.34 180.812 221.412H182.744C183.088 221.412 183.352 221.36 183.536 221.256C183.72 221.152 183.856 220.884 183.944 220.452C183.96 220.372 184.004 220.316 184.076 220.284C184.148 220.244 184.22 220.228 184.292 220.236C184.372 220.244 184.44 220.272 184.496 220.32C184.56 220.36 184.592 220.412 184.592 220.476L184.472 222.252H179.372ZM190.628 217.836C190.628 218.252 190.596 218.672 190.532 219.096C190.476 219.512 190.38 219.904 190.244 220.272C190.108 220.648 189.928 220.988 189.704 221.292C189.48 221.596 189.2 221.836 188.864 222.012C188.648 222.132 188.416 222.22 188.168 222.276C187.92 222.332 187.66 222.36 187.388 222.36C187.116 222.36 186.82 222.328 186.5 222.264C186.188 222.208 185.904 222.1 185.648 221.94V221.064C185.936 221.208 186.232 221.312 186.536 221.376C186.848 221.44 187.14 221.468 187.412 221.46C187.532 221.46 187.648 221.448 187.76 221.424C187.872 221.392 187.976 221.352 188.072 221.304C188.424 221.112 188.7 220.832 188.9 220.464C189.1 220.088 189.232 219.684 189.296 219.252C189.304 219.156 189.312 219.06 189.32 218.964C189.328 218.86 189.332 218.764 189.332 218.676C189.34 218.588 189.344 218.516 189.344 218.46C189.344 218.396 189.344 218.36 189.344 218.352C189.304 218.392 189.172 218.484 188.948 218.628C188.732 218.764 188.484 218.852 188.204 218.892C187.9 218.964 187.576 218.972 187.232 218.916C186.888 218.852 186.568 218.716 186.272 218.508C185.984 218.3 185.74 218.016 185.54 217.656C185.348 217.288 185.252 216.828 185.252 216.276C185.252 215.476 185.488 214.84 185.96 214.368C186.432 213.888 187.088 213.648 187.928 213.648C188.512 213.648 188.98 213.78 189.332 214.044C189.684 214.3 189.956 214.628 190.148 215.028C190.34 215.428 190.468 215.876 190.532 216.372C190.596 216.868 190.628 217.356 190.628 217.836ZM189.332 217.26V216.9C189.332 216.668 189.308 216.412 189.26 216.132C189.212 215.844 189.136 215.576 189.032 215.328C188.92 215.072 188.772 214.86 188.588 214.692C188.404 214.524 188.176 214.436 187.904 214.428C187.456 214.428 187.116 214.596 186.884 214.932C186.652 215.26 186.536 215.692 186.536 216.228C186.536 216.756 186.636 217.204 186.836 217.572C187.036 217.932 187.36 218.112 187.808 218.112C188.152 218.112 188.464 218.016 188.744 217.824C189.024 217.632 189.22 217.444 189.332 217.26Z" fill="#3E3E47"/>
<path d="M238.582 59.26H235.558V60.964C235.558 61.012 235.554 61.052 235.546 61.084C235.546 61.116 235.546 61.156 235.546 61.204H238.582V59.26ZM239.734 62.092H237.682V63.064H241.834C241.978 63.064 242.09 63.116 242.17 63.22C242.25 63.324 242.29 63.42 242.29 63.508C242.29 63.604 242.246 63.704 242.158 63.808C242.078 63.904 241.97 63.952 241.834 63.952H232.282C232.154 63.952 232.046 63.9 231.958 63.796C231.878 63.692 231.838 63.592 231.838 63.496C231.838 63.4 231.878 63.304 231.958 63.208C232.046 63.112 232.154 63.064 232.282 63.064H236.458V62.092H235.282C235.258 62.164 235.198 62.24 235.102 62.32C235.006 62.4 234.898 62.44 234.778 62.44H234.286V59.668C234.286 59.46 234.266 59.316 234.226 59.236C234.186 59.156 234.098 59.092 233.962 59.044C233.85 59.02 233.762 58.98 233.698 58.924C233.642 58.868 233.614 58.788 233.614 58.684C233.614 58.556 233.666 58.468 233.77 58.42C233.874 58.372 233.978 58.348 234.082 58.348H239.398C239.542 58.348 239.654 58.412 239.734 58.54C239.814 58.668 239.854 58.78 239.854 58.876V60.436C239.854 60.612 239.834 60.772 239.794 60.916C239.762 61.06 239.734 61.16 239.71 61.216H239.77C239.826 61.216 239.894 61.256 239.974 61.336C240.054 61.408 240.094 61.512 240.094 61.648C240.094 61.784 240.058 61.892 239.986 61.972C239.914 62.052 239.83 62.092 239.734 62.092ZM239.962 65.644V67.744C239.962 68.12 239.87 68.416 239.686 68.632C239.51 68.848 239.298 68.956 239.05 68.956H238.69V65.944H234.13C234.034 65.944 233.942 65.904 233.854 65.824C233.766 65.744 233.722 65.632 233.722 65.488C233.722 65.368 233.762 65.264 233.842 65.176C233.93 65.08 234.026 65.032 234.13 65.032H239.302C239.51 65.032 239.67 65.092 239.782 65.212C239.902 65.332 239.962 65.476 239.962 65.644Z" fill="#3E3E47"/>
<path d="M234.372 90.252V89.592C234.404 89.56 234.44 89.528 234.48 89.496C234.52 89.456 234.56 89.416 234.6 89.376C234.648 89.336 234.692 89.292 234.732 89.244C234.78 89.196 234.836 89.144 234.9 89.088C235.06 88.936 235.244 88.744 235.452 88.512C235.668 88.272 235.888 88.012 236.112 87.732C236.336 87.46 236.556 87.18 236.772 86.892C236.988 86.604 237.18 86.324 237.348 86.052C237.54 85.74 237.708 85.404 237.852 85.044C237.996 84.676 238.068 84.292 238.068 83.892C238.068 83.508 237.956 83.188 237.732 82.932C237.508 82.668 237.14 82.536 236.628 82.536C236.404 82.536 236.208 82.58 236.04 82.668C235.872 82.748 235.732 82.852 235.62 82.98C235.5 83.1 235.408 83.236 235.344 83.388C235.28 83.54 235.244 83.684 235.236 83.82H234.204C234.212 83.572 234.268 83.32 234.372 83.064C234.476 82.8 234.632 82.564 234.84 82.356C235.04 82.148 235.296 81.98 235.608 81.852C235.928 81.716 236.304 81.648 236.736 81.648C237.576 81.648 238.224 81.872 238.68 82.32C239.144 82.768 239.376 83.392 239.376 84.192C239.376 84.504 239.292 84.856 239.124 85.248C238.964 85.64 238.76 86.004 238.512 86.34C238.288 86.644 238.036 86.96 237.756 87.288C237.484 87.616 237.22 87.928 236.964 88.224C236.7 88.512 236.464 88.764 236.256 88.98C236.048 89.196 235.9 89.34 235.812 89.412H237.744C238.088 89.412 238.352 89.36 238.536 89.256C238.72 89.152 238.856 88.884 238.944 88.452C238.96 88.372 239.004 88.316 239.076 88.284C239.148 88.244 239.22 88.228 239.292 88.236C239.372 88.244 239.44 88.272 239.496 88.32C239.56 88.36 239.592 88.412 239.592 88.476L239.472 90.252H234.372Z" fill="#3E3E47"/>
<path d="M239.628 118.836C239.628 119.252 239.596 119.672 239.532 120.096C239.476 120.512 239.38 120.904 239.244 121.272C239.108 121.648 238.928 121.988 238.704 122.292C238.48 122.596 238.2 122.836 237.864 123.012C237.648 123.132 237.416 123.22 237.168 123.276C236.92 123.332 236.66 123.36 236.388 123.36C236.116 123.36 235.82 123.328 235.5 123.264C235.188 123.208 234.904 123.1 234.648 122.94V122.064C234.936 122.208 235.232 122.312 235.536 122.376C235.848 122.44 236.14 122.468 236.412 122.46C236.532 122.46 236.648 122.448 236.76 122.424C236.872 122.392 236.976 122.352 237.072 122.304C237.424 122.112 237.7 121.832 237.9 121.464C238.1 121.088 238.232 120.684 238.296 120.252C238.304 120.156 238.312 120.06 238.32 119.964C238.328 119.86 238.332 119.764 238.332 119.676C238.34 119.588 238.344 119.516 238.344 119.46C238.344 119.396 238.344 119.36 238.344 119.352C238.304 119.392 238.172 119.484 237.948 119.628C237.732 119.764 237.484 119.852 237.204 119.892C236.9 119.964 236.576 119.972 236.232 119.916C235.888 119.852 235.568 119.716 235.272 119.508C234.984 119.3 234.74 119.016 234.54 118.656C234.348 118.288 234.252 117.828 234.252 117.276C234.252 116.476 234.488 115.84 234.96 115.368C235.432 114.888 236.088 114.648 236.928 114.648C237.512 114.648 237.98 114.78 238.332 115.044C238.684 115.3 238.956 115.628 239.148 116.028C239.34 116.428 239.468 116.876 239.532 117.372C239.596 117.868 239.628 118.356 239.628 118.836ZM238.332 118.26V117.9C238.332 117.668 238.308 117.412 238.26 117.132C238.212 116.844 238.136 116.576 238.032 116.328C237.92 116.072 237.772 115.86 237.588 115.692C237.404 115.524 237.176 115.436 236.904 115.428C236.456 115.428 236.116 115.596 235.884 115.932C235.652 116.26 235.536 116.692 235.536 117.228C235.536 117.756 235.636 118.204 235.836 118.572C236.036 118.932 236.36 119.112 236.808 119.112C237.152 119.112 237.464 119.016 237.744 118.824C238.024 118.632 238.22 118.444 238.332 118.26Z" fill="#3E3E47"/>
<path d="M233.592 156.252V149.976C233.592 149.624 233.552 149.384 233.472 149.256C233.4 149.12 233.2 149.112 232.872 149.232C232.808 149.256 232.748 149.28 232.692 149.304C232.636 149.32 232.608 149.328 232.608 149.328C232.512 149.36 232.424 149.356 232.344 149.316C232.272 149.268 232.22 149.208 232.188 149.136C232.148 149.064 232.136 148.988 232.152 148.908C232.176 148.828 232.24 148.764 232.344 148.716L234.24 147.648H234.828V156.252H233.592ZM242.316 148.092V148.932C241.996 148.772 241.696 148.664 241.416 148.608C241.136 148.552 240.896 148.524 240.696 148.524C240.52 148.524 240.36 148.544 240.216 148.584C240.072 148.624 239.94 148.68 239.82 148.752C239.564 148.912 239.356 149.116 239.196 149.364C239.036 149.612 238.912 149.876 238.824 150.156C238.736 150.428 238.676 150.704 238.644 150.984C238.612 151.264 238.596 151.512 238.596 151.728C238.612 151.712 238.656 151.668 238.728 151.596C238.808 151.516 238.92 151.432 239.064 151.344C239.2 151.264 239.372 151.188 239.58 151.116C239.796 151.044 240.052 151.008 240.348 151.008C241.14 151.008 241.748 151.256 242.172 151.752C242.604 152.24 242.828 152.876 242.844 153.66C242.844 154.46 242.588 155.112 242.076 155.616C241.572 156.12 240.88 156.372 240 156.372C239.384 156.372 238.896 156.236 238.536 155.964C238.176 155.692 237.908 155.348 237.732 154.932C237.548 154.524 237.432 154.076 237.384 153.588C237.336 153.092 237.312 152.628 237.312 152.196C237.312 151.796 237.34 151.388 237.396 150.972C237.46 150.548 237.56 150.144 237.696 149.76C237.84 149.376 238.024 149.032 238.248 148.728C238.48 148.416 238.764 148.172 239.1 147.996C239.3 147.892 239.528 147.808 239.784 147.744C240.048 147.68 240.316 147.648 240.588 147.648C240.876 147.648 241.168 147.684 241.464 147.756C241.768 147.82 242.052 147.932 242.316 148.092ZM238.584 152.88C238.584 153.176 238.6 153.48 238.632 153.792C238.664 154.104 238.732 154.388 238.836 154.644C238.932 154.9 239.076 155.112 239.268 155.28C239.468 155.448 239.736 155.532 240.072 155.532C240.592 155.54 240.968 155.364 241.2 155.004C241.432 154.644 241.548 154.212 241.548 153.708C241.548 153.22 241.444 152.796 241.236 152.436C241.036 152.068 240.708 151.884 240.252 151.884C240.076 151.884 239.904 151.92 239.736 151.992C239.576 152.056 239.424 152.136 239.28 152.232C239.136 152.336 239.004 152.448 238.884 152.568C238.764 152.68 238.664 152.784 238.584 152.88Z" fill="#3E3E47"/>
<path d="M231.372 190.252V189.592C231.404 189.56 231.44 189.528 231.48 189.496C231.52 189.456 231.56 189.416 231.6 189.376C231.648 189.336 231.692 189.292 231.732 189.244C231.78 189.196 231.836 189.144 231.9 189.088C232.06 188.936 232.244 188.744 232.452 188.512C232.668 188.272 232.888 188.012 233.112 187.732C233.336 187.46 233.556 187.18 233.772 186.892C233.988 186.604 234.18 186.324 234.348 186.052C234.54 185.74 234.708 185.404 234.852 185.044C234.996 184.676 235.068 184.292 235.068 183.892C235.068 183.508 234.956 183.188 234.732 182.932C234.508 182.668 234.14 182.536 233.628 182.536C233.404 182.536 233.208 182.58 233.04 182.668C232.872 182.748 232.732 182.852 232.62 182.98C232.5 183.1 232.408 183.236 232.344 183.388C232.28 183.54 232.244 183.684 232.236 183.82H231.204C231.212 183.572 231.268 183.32 231.372 183.064C231.476 182.8 231.632 182.564 231.84 182.356C232.04 182.148 232.296 181.98 232.608 181.852C232.928 181.716 233.304 181.648 233.736 181.648C234.576 181.648 235.224 181.872 235.68 182.32C236.144 182.768 236.376 183.392 236.376 184.192C236.376 184.504 236.292 184.856 236.124 185.248C235.964 185.64 235.76 186.004 235.512 186.34C235.288 186.644 235.036 186.96 234.756 187.288C234.484 187.616 234.22 187.928 233.964 188.224C233.7 188.512 233.464 188.764 233.256 188.98C233.048 189.196 232.9 189.34 232.812 189.412H234.744C235.088 189.412 235.352 189.36 235.536 189.256C235.72 189.152 235.856 188.884 235.944 188.452C235.96 188.372 236.004 188.316 236.076 188.284C236.148 188.244 236.22 188.228 236.292 188.236C236.372 188.244 236.44 188.272 236.496 188.32C236.56 188.36 236.592 188.412 236.592 188.476L236.472 190.252H231.372ZM238.26 183.556H237.396C237.412 183.38 237.468 183.18 237.564 182.956C237.66 182.732 237.804 182.524 237.996 182.332C238.188 182.14 238.432 181.98 238.728 181.852C239.024 181.716 239.384 181.648 239.808 181.648C240.152 181.648 240.484 181.696 240.804 181.792C241.124 181.888 241.404 182.032 241.644 182.224C241.884 182.416 242.076 182.656 242.22 182.944C242.364 183.224 242.436 183.548 242.436 183.916C242.436 184.188 242.388 184.436 242.292 184.66C242.196 184.876 242.08 185.064 241.944 185.224C241.808 185.392 241.664 185.524 241.512 185.62C241.36 185.716 241.224 185.776 241.104 185.8C241.232 185.84 241.38 185.908 241.548 186.004C241.716 186.1 241.872 186.232 242.016 186.4C242.16 186.568 242.284 186.776 242.388 187.024C242.492 187.272 242.544 187.564 242.544 187.9C242.544 188.308 242.456 188.668 242.28 188.98C242.104 189.292 241.868 189.548 241.572 189.748C241.276 189.956 240.932 190.112 240.54 190.216C240.148 190.32 239.74 190.372 239.316 190.372C238.932 190.372 238.552 190.32 238.176 190.216C237.808 190.12 237.524 189.992 237.324 189.832V188.884C237.556 189.068 237.852 189.212 238.212 189.316C238.58 189.42 238.896 189.472 239.16 189.472C239.392 189.472 239.628 189.448 239.868 189.4C240.116 189.352 240.336 189.264 240.528 189.136C240.728 189 240.892 188.82 241.02 188.596C241.148 188.372 241.212 188.08 241.212 187.72C241.212 187.312 241.108 186.98 240.9 186.724C240.692 186.468 240.444 186.316 240.156 186.268C240.06 186.252 239.924 186.24 239.748 186.232C239.58 186.216 239.496 186.208 239.496 186.208C239.376 186.208 239.284 186.168 239.22 186.088C239.164 186 239.136 185.904 239.136 185.8C239.136 185.696 239.164 185.6 239.22 185.512C239.284 185.424 239.376 185.38 239.496 185.38C239.496 185.38 239.556 185.38 239.676 185.38C239.796 185.372 239.908 185.36 240.012 185.344C240.124 185.328 240.244 185.296 240.372 185.248C240.508 185.2 240.632 185.124 240.744 185.02C240.848 184.916 240.936 184.78 241.008 184.612C241.088 184.436 241.128 184.208 241.128 183.928C241.128 183.448 240.992 183.088 240.72 182.848C240.448 182.608 240.084 182.488 239.628 182.488C239.276 182.488 238.976 182.6 238.728 182.824C238.488 183.04 238.332 183.284 238.26 183.556Z" fill="#3E3E47"/>
<path d="M232.26 215.556H231.396C231.412 215.38 231.468 215.18 231.564 214.956C231.66 214.732 231.804 214.524 231.996 214.332C232.188 214.14 232.432 213.98 232.728 213.852C233.024 213.716 233.384 213.648 233.808 213.648C234.152 213.648 234.484 213.696 234.804 213.792C235.124 213.888 235.404 214.032 235.644 214.224C235.884 214.416 236.076 214.656 236.22 214.944C236.364 215.224 236.436 215.548 236.436 215.916C236.436 216.188 236.388 216.436 236.292 216.66C236.196 216.876 236.08 217.064 235.944 217.224C235.808 217.392 235.664 217.524 235.512 217.62C235.36 217.716 235.224 217.776 235.104 217.8C235.232 217.84 235.38 217.908 235.548 218.004C235.716 218.1 235.872 218.232 236.016 218.4C236.16 218.568 236.284 218.776 236.388 219.024C236.492 219.272 236.544 219.564 236.544 219.9C236.544 220.308 236.456 220.668 236.28 220.98C236.104 221.292 235.868 221.548 235.572 221.748C235.276 221.956 234.932 222.112 234.54 222.216C234.148 222.32 233.74 222.372 233.316 222.372C232.932 222.372 232.552 222.32 232.176 222.216C231.808 222.12 231.524 221.992 231.324 221.832V220.884C231.556 221.068 231.852 221.212 232.212 221.316C232.58 221.42 232.896 221.472 233.16 221.472C233.392 221.472 233.628 221.448 233.868 221.4C234.116 221.352 234.336 221.264 234.528 221.136C234.728 221 234.892 220.82 235.02 220.596C235.148 220.372 235.212 220.08 235.212 219.72C235.212 219.312 235.108 218.98 234.9 218.724C234.692 218.468 234.444 218.316 234.156 218.268C234.06 218.252 233.924 218.24 233.748 218.232C233.58 218.216 233.496 218.208 233.496 218.208C233.376 218.208 233.284 218.168 233.22 218.088C233.164 218 233.136 217.904 233.136 217.8C233.136 217.696 233.164 217.6 233.22 217.512C233.284 217.424 233.376 217.38 233.496 217.38C233.496 217.38 233.556 217.38 233.676 217.38C233.796 217.372 233.908 217.36 234.012 217.344C234.124 217.328 234.244 217.296 234.372 217.248C234.508 217.2 234.632 217.124 234.744 217.02C234.848 216.916 234.936 216.78 235.008 216.612C235.088 216.436 235.128 216.208 235.128 215.928C235.128 215.448 234.992 215.088 234.72 214.848C234.448 214.608 234.084 214.488 233.628 214.488C233.276 214.488 232.976 214.6 232.728 214.824C232.488 215.04 232.332 215.284 232.26 215.556ZM240 222.372C239.504 222.372 239.08 222.256 238.728 222.024C238.376 221.792 238.092 221.476 237.876 221.076C237.652 220.676 237.488 220.208 237.384 219.672C237.288 219.136 237.24 218.568 237.24 217.968C237.24 217.464 237.284 216.956 237.372 216.444C237.468 215.924 237.624 215.46 237.84 215.052C238.048 214.636 238.328 214.3 238.68 214.044C239.032 213.78 239.468 213.648 239.988 213.648C240.492 213.648 240.92 213.776 241.272 214.032C241.632 214.288 241.92 214.62 242.136 215.028C242.36 215.436 242.52 215.9 242.616 216.42C242.72 216.932 242.772 217.448 242.772 217.968C242.772 218.504 242.72 219.036 242.616 219.564C242.52 220.084 242.364 220.552 242.148 220.968C241.924 221.392 241.636 221.732 241.284 221.988C240.932 222.244 240.504 222.372 240 222.372ZM238.524 217.968C238.524 218.376 238.544 218.792 238.584 219.216C238.632 219.632 238.712 220.012 238.824 220.356C238.936 220.7 239.088 220.98 239.28 221.196C239.472 221.412 239.716 221.52 240.012 221.52C240.308 221.52 240.552 221.408 240.744 221.184C240.936 220.952 241.088 220.66 241.2 220.308C241.312 219.964 241.388 219.584 241.428 219.168C241.476 218.744 241.5 218.344 241.5 217.968C241.5 217.528 241.472 217.1 241.416 216.684C241.36 216.268 241.272 215.896 241.152 215.568C241.032 215.24 240.876 214.976 240.684 214.776C240.492 214.576 240.26 214.476 239.988 214.476C239.692 214.476 239.448 214.58 239.256 214.788C239.064 214.988 238.916 215.252 238.812 215.58C238.7 215.908 238.624 216.28 238.584 216.696C238.544 217.112 238.524 217.536 238.524 217.968Z" fill="#3E3E47"/>
<path d="M290.962 59.008C290.962 59.6 290.93 60.168 290.866 60.712C290.802 61.248 290.698 61.764 290.554 62.26H292.834C292.986 62.26 293.098 62.312 293.17 62.416C293.242 62.52 293.278 62.612 293.278 62.692C293.278 62.788 293.238 62.884 293.158 62.98C293.078 63.076 292.97 63.124 292.834 63.124H283.282C283.154 63.124 283.046 63.076 282.958 62.98C282.878 62.876 282.838 62.776 282.838 62.68C282.838 62.608 282.878 62.52 282.958 62.416C283.046 62.312 283.154 62.26 283.282 62.26H289.498C289.546 62.012 289.578 61.768 289.594 61.528C289.618 61.28 289.634 61.032 289.642 60.784C289.642 60.536 289.642 60.284 289.642 60.028C289.642 59.772 289.642 59.504 289.642 59.224H285.226C285.122 59.224 285.03 59.176 284.95 59.08C284.87 58.984 284.83 58.884 284.83 58.78C284.83 58.684 284.87 58.588 284.95 58.492C285.038 58.396 285.142 58.348 285.262 58.348H290.374C290.582 58.348 290.73 58.424 290.818 58.576C290.914 58.72 290.962 58.864 290.962 59.008ZM289.702 65.56H286.63V67.84H289.702V65.56ZM290.866 68.764H286.354C286.33 68.812 286.266 68.876 286.162 68.956C286.066 69.036 285.962 69.076 285.85 69.076H285.358V65.968C285.358 65.728 285.334 65.58 285.286 65.524C285.246 65.468 285.166 65.424 285.046 65.392C284.926 65.368 284.834 65.332 284.77 65.284C284.706 65.228 284.674 65.14 284.674 65.02C284.674 64.892 284.73 64.804 284.842 64.756C284.954 64.708 285.062 64.684 285.166 64.684H290.506C290.658 64.684 290.774 64.744 290.854 64.864C290.934 64.984 290.974 65.1 290.974 65.212V67.072C290.974 67.264 290.962 67.428 290.938 67.564C290.922 67.7 290.902 67.796 290.878 67.852H290.902C290.982 67.852 291.054 67.908 291.118 68.02C291.182 68.132 291.214 68.232 291.214 68.32C291.214 68.408 291.178 68.504 291.106 68.608C291.042 68.712 290.962 68.764 290.866 68.764Z" fill="#3E3E47"/>
<path d="M286.26 83.556H285.396C285.412 83.38 285.468 83.18 285.564 82.956C285.66 82.732 285.804 82.524 285.996 82.332C286.188 82.14 286.432 81.98 286.728 81.852C287.024 81.716 287.384 81.648 287.808 81.648C288.152 81.648 288.484 81.696 288.804 81.792C289.124 81.888 289.404 82.032 289.644 82.224C289.884 82.416 290.076 82.656 290.22 82.944C290.364 83.224 290.436 83.548 290.436 83.916C290.436 84.188 290.388 84.436 290.292 84.66C290.196 84.876 290.08 85.064 289.944 85.224C289.808 85.392 289.664 85.524 289.512 85.62C289.36 85.716 289.224 85.776 289.104 85.8C289.232 85.84 289.38 85.908 289.548 86.004C289.716 86.1 289.872 86.232 290.016 86.4C290.16 86.568 290.284 86.776 290.388 87.024C290.492 87.272 290.544 87.564 290.544 87.9C290.544 88.308 290.456 88.668 290.28 88.98C290.104 89.292 289.868 89.548 289.572 89.748C289.276 89.956 288.932 90.112 288.54 90.216C288.148 90.32 287.74 90.372 287.316 90.372C286.932 90.372 286.552 90.32 286.176 90.216C285.808 90.12 285.524 89.992 285.324 89.832V88.884C285.556 89.068 285.852 89.212 286.212 89.316C286.58 89.42 286.896 89.472 287.16 89.472C287.392 89.472 287.628 89.448 287.868 89.4C288.116 89.352 288.336 89.264 288.528 89.136C288.728 89 288.892 88.82 289.02 88.596C289.148 88.372 289.212 88.08 289.212 87.72C289.212 87.312 289.108 86.98 288.9 86.724C288.692 86.468 288.444 86.316 288.156 86.268C288.06 86.252 287.924 86.24 287.748 86.232C287.58 86.216 287.496 86.208 287.496 86.208C287.376 86.208 287.284 86.168 287.22 86.088C287.164 86 287.136 85.904 287.136 85.8C287.136 85.696 287.164 85.6 287.22 85.512C287.284 85.424 287.376 85.38 287.496 85.38C287.496 85.38 287.556 85.38 287.676 85.38C287.796 85.372 287.908 85.36 288.012 85.344C288.124 85.328 288.244 85.296 288.372 85.248C288.508 85.2 288.632 85.124 288.744 85.02C288.848 84.916 288.936 84.78 289.008 84.612C289.088 84.436 289.128 84.208 289.128 83.928C289.128 83.448 288.992 83.088 288.72 82.848C288.448 82.608 288.084 82.488 287.628 82.488C287.276 82.488 286.976 82.6 286.728 82.824C286.488 83.04 286.332 83.284 286.26 83.556Z" fill="#3E3E47"/>
<path d="M284.592 123.252V116.976C284.592 116.624 284.552 116.384 284.472 116.256C284.4 116.12 284.2 116.112 283.872 116.232C283.808 116.256 283.748 116.28 283.692 116.304C283.636 116.32 283.608 116.328 283.608 116.328C283.512 116.36 283.424 116.356 283.344 116.316C283.272 116.268 283.22 116.208 283.188 116.136C283.148 116.064 283.136 115.988 283.152 115.908C283.176 115.828 283.24 115.764 283.344 115.716L285.24 114.648H285.828V123.252H284.592ZM291 123.372C290.504 123.372 290.08 123.256 289.728 123.024C289.376 122.792 289.092 122.476 288.876 122.076C288.652 121.676 288.488 121.208 288.384 120.672C288.288 120.136 288.24 119.568 288.24 118.968C288.24 118.464 288.284 117.956 288.372 117.444C288.468 116.924 288.624 116.46 288.84 116.052C289.048 115.636 289.328 115.3 289.68 115.044C290.032 114.78 290.468 114.648 290.988 114.648C291.492 114.648 291.92 114.776 292.272 115.032C292.632 115.288 292.92 115.62 293.136 116.028C293.36 116.436 293.52 116.9 293.616 117.42C293.72 117.932 293.772 118.448 293.772 118.968C293.772 119.504 293.72 120.036 293.616 120.564C293.52 121.084 293.364 121.552 293.148 121.968C292.924 122.392 292.636 122.732 292.284 122.988C291.932 123.244 291.504 123.372 291 123.372ZM289.524 118.968C289.524 119.376 289.544 119.792 289.584 120.216C289.632 120.632 289.712 121.012 289.824 121.356C289.936 121.7 290.088 121.98 290.28 122.196C290.472 122.412 290.716 122.52 291.012 122.52C291.308 122.52 291.552 122.408 291.744 122.184C291.936 121.952 292.088 121.66 292.2 121.308C292.312 120.964 292.388 120.584 292.428 120.168C292.476 119.744 292.5 119.344 292.5 118.968C292.5 118.528 292.472 118.1 292.416 117.684C292.36 117.268 292.272 116.896 292.152 116.568C292.032 116.24 291.876 115.976 291.684 115.776C291.492 115.576 291.26 115.476 290.988 115.476C290.692 115.476 290.448 115.58 290.256 115.788C290.064 115.988 289.916 116.252 289.812 116.58C289.7 116.908 289.624 117.28 289.584 117.696C289.544 118.112 289.524 118.536 289.524 118.968Z" fill="#3E3E47"/>
<path d="M284.592 156.252V149.976C284.592 149.624 284.552 149.384 284.472 149.256C284.4 149.12 284.2 149.112 283.872 149.232C283.808 149.256 283.748 149.28 283.692 149.304C283.636 149.32 283.608 149.328 283.608 149.328C283.512 149.36 283.424 149.356 283.344 149.316C283.272 149.268 283.22 149.208 283.188 149.136C283.148 149.064 283.136 148.988 283.152 148.908C283.176 148.828 283.24 148.764 283.344 148.716L285.24 147.648H285.828V156.252H284.592ZM289.5 156.252L292.32 148.608H289.848C289.72 148.608 289.604 148.64 289.5 148.704C289.404 148.768 289.308 148.88 289.212 149.04C289.18 149.112 289.144 149.216 289.104 149.352C289.072 149.488 289.056 149.556 289.056 149.556C289.032 149.668 288.98 149.748 288.9 149.796C288.828 149.844 288.752 149.864 288.672 149.856C288.584 149.848 288.504 149.816 288.432 149.76C288.368 149.704 288.336 149.628 288.336 149.532L288.396 147.768H293.7V148.38L290.76 156.252H289.5Z" fill="#3E3E47"/>
<path d="M282.372 190.252V189.592C282.404 189.56 282.44 189.528 282.48 189.496C282.52 189.456 282.56 189.416 282.6 189.376C282.648 189.336 282.692 189.292 282.732 189.244C282.78 189.196 282.836 189.144 282.9 189.088C283.06 188.936 283.244 188.744 283.452 188.512C283.668 188.272 283.888 188.012 284.112 187.732C284.336 187.46 284.556 187.18 284.772 186.892C284.988 186.604 285.18 186.324 285.348 186.052C285.54 185.74 285.708 185.404 285.852 185.044C285.996 184.676 286.068 184.292 286.068 183.892C286.068 183.508 285.956 183.188 285.732 182.932C285.508 182.668 285.14 182.536 284.628 182.536C284.404 182.536 284.208 182.58 284.04 182.668C283.872 182.748 283.732 182.852 283.62 182.98C283.5 183.1 283.408 183.236 283.344 183.388C283.28 183.54 283.244 183.684 283.236 183.82H282.204C282.212 183.572 282.268 183.32 282.372 183.064C282.476 182.8 282.632 182.564 282.84 182.356C283.04 182.148 283.296 181.98 283.608 181.852C283.928 181.716 284.304 181.648 284.736 181.648C285.576 181.648 286.224 181.872 286.68 182.32C287.144 182.768 287.376 183.392 287.376 184.192C287.376 184.504 287.292 184.856 287.124 185.248C286.964 185.64 286.76 186.004 286.512 186.34C286.288 186.644 286.036 186.96 285.756 187.288C285.484 187.616 285.22 187.928 284.964 188.224C284.7 188.512 284.464 188.764 284.256 188.98C284.048 189.196 283.9 189.34 283.812 189.412H285.744C286.088 189.412 286.352 189.36 286.536 189.256C286.72 189.152 286.856 188.884 286.944 188.452C286.96 188.372 287.004 188.316 287.076 188.284C287.148 188.244 287.22 188.228 287.292 188.236C287.372 188.244 287.44 188.272 287.496 188.32C287.56 188.36 287.592 188.412 287.592 188.476L287.472 190.252H282.372ZM291.564 190.252V187.984H288.096V187.18L291.576 181.648H292.764V187.06H293.916V187.984H292.764V190.252H291.564ZM291.564 183.448L289.32 187.06H291.564V183.448Z" fill="#3E3E47"/>
<path d="M283.26 215.556H282.396C282.412 215.38 282.468 215.18 282.564 214.956C282.66 214.732 282.804 214.524 282.996 214.332C283.188 214.14 283.432 213.98 283.728 213.852C284.024 213.716 284.384 213.648 284.808 213.648C285.152 213.648 285.484 213.696 285.804 213.792C286.124 213.888 286.404 214.032 286.644 214.224C286.884 214.416 287.076 214.656 287.22 214.944C287.364 215.224 287.436 215.548 287.436 215.916C287.436 216.188 287.388 216.436 287.292 216.66C287.196 216.876 287.08 217.064 286.944 217.224C286.808 217.392 286.664 217.524 286.512 217.62C286.36 217.716 286.224 217.776 286.104 217.8C286.232 217.84 286.38 217.908 286.548 218.004C286.716 218.1 286.872 218.232 287.016 218.4C287.16 218.568 287.284 218.776 287.388 219.024C287.492 219.272 287.544 219.564 287.544 219.9C287.544 220.308 287.456 220.668 287.28 220.98C287.104 221.292 286.868 221.548 286.572 221.748C286.276 221.956 285.932 222.112 285.54 222.216C285.148 222.32 284.74 222.372 284.316 222.372C283.932 222.372 283.552 222.32 283.176 222.216C282.808 222.12 282.524 221.992 282.324 221.832V220.884C282.556 221.068 282.852 221.212 283.212 221.316C283.58 221.42 283.896 221.472 284.16 221.472C284.392 221.472 284.628 221.448 284.868 221.4C285.116 221.352 285.336 221.264 285.528 221.136C285.728 221 285.892 220.82 286.02 220.596C286.148 220.372 286.212 220.08 286.212 219.72C286.212 219.312 286.108 218.98 285.9 218.724C285.692 218.468 285.444 218.316 285.156 218.268C285.06 218.252 284.924 218.24 284.748 218.232C284.58 218.216 284.496 218.208 284.496 218.208C284.376 218.208 284.284 218.168 284.22 218.088C284.164 218 284.136 217.904 284.136 217.8C284.136 217.696 284.164 217.6 284.22 217.512C284.284 217.424 284.376 217.38 284.496 217.38C284.496 217.38 284.556 217.38 284.676 217.38C284.796 217.372 284.908 217.36 285.012 217.344C285.124 217.328 285.244 217.296 285.372 217.248C285.508 217.2 285.632 217.124 285.744 217.02C285.848 216.916 285.936 216.78 286.008 216.612C286.088 216.436 286.128 216.208 286.128 215.928C286.128 215.448 285.992 215.088 285.72 214.848C285.448 214.608 285.084 214.488 284.628 214.488C284.276 214.488 283.976 214.6 283.728 214.824C283.488 215.04 283.332 215.284 283.26 215.556ZM290.592 222.252V215.976C290.592 215.624 290.552 215.384 290.472 215.256C290.4 215.12 290.2 215.112 289.872 215.232C289.808 215.256 289.748 215.28 289.692 215.304C289.636 215.32 289.608 215.328 289.608 215.328C289.512 215.36 289.424 215.356 289.344 215.316C289.272 215.268 289.22 215.208 289.188 215.136C289.148 215.064 289.136 214.988 289.152 214.908C289.176 214.828 289.24 214.764 289.344 214.716L291.24 213.648H291.828V222.252H290.592Z" fill="#3E3E47"/>
<path d="M342.422 59.788H338.522V61.18H342.266C342.394 61.18 342.49 61.236 342.554 61.348C342.626 61.452 342.662 61.54 342.662 61.612C342.662 61.692 342.63 61.784 342.566 61.888C342.51 61.992 342.426 62.044 342.314 62.044H338.522V63.1C338.522 63.172 338.546 63.248 338.594 63.328C338.642 63.408 338.726 63.448 338.846 63.448H342.482C342.602 63.448 342.706 63.5 342.794 63.604C342.882 63.708 342.926 63.804 342.926 63.892C342.926 64.012 342.882 64.12 342.794 64.216C342.706 64.312 342.606 64.36 342.494 64.36H340.682V65.812H344.834C344.986 65.812 345.098 65.864 345.17 65.968C345.25 66.072 345.29 66.168 345.29 66.256C345.29 66.376 345.246 66.484 345.158 66.58C345.078 66.668 344.97 66.712 344.834 66.712H335.282C335.154 66.712 335.046 66.664 334.958 66.568C334.878 66.472 334.838 66.364 334.838 66.244C334.838 66.148 334.878 66.052 334.958 65.956C335.046 65.86 335.154 65.812 335.282 65.812H339.458V64.36H338.258C338.17 64.36 338.07 64.344 337.958 64.312C337.846 64.28 337.738 64.224 337.634 64.144C337.53 64.064 337.442 63.964 337.37 63.844C337.298 63.724 337.262 63.572 337.262 63.388V60.34C337.262 60.052 337.246 59.864 337.214 59.776C337.19 59.688 337.106 59.62 336.962 59.572C336.866 59.548 336.774 59.512 336.686 59.464C336.606 59.408 336.566 59.328 336.566 59.224C336.566 59.088 336.618 58.996 336.722 58.948C336.834 58.9 336.938 58.876 337.034 58.876H342.362C342.45 58.876 342.542 58.928 342.638 59.032C342.734 59.128 342.782 59.236 342.782 59.356C342.782 59.452 342.738 59.548 342.65 59.644C342.57 59.74 342.494 59.788 342.422 59.788Z" fill="#0047FF"/>
<path d="M340.564 90.252V87.984H337.096V87.18L340.576 81.648H341.764V87.06H342.916V87.984H341.764V90.252H340.564ZM340.564 83.448L338.32 87.06H340.564V83.448Z" fill="#0047FF"/>
<path d="M336.592 123.252V116.976C336.592 116.624 336.552 116.384 336.472 116.256C336.4 116.12 336.2 116.112 335.872 116.232C335.808 116.256 335.748 116.28 335.692 116.304C335.636 116.32 335.608 116.328 335.608 116.328C335.512 116.36 335.424 116.356 335.344 116.316C335.272 116.268 335.22 116.208 335.188 116.136C335.148 116.064 335.136 115.988 335.152 115.908C335.176 115.828 335.24 115.764 335.344 115.716L337.24 114.648H337.828V123.252H336.592ZM342.592 123.252V116.976C342.592 116.624 342.552 116.384 342.472 116.256C342.4 116.12 342.2 116.112 341.872 116.232C341.808 116.256 341.748 116.28 341.692 116.304C341.636 116.32 341.608 116.328 341.608 116.328C341.512 116.36 341.424 116.356 341.344 116.316C341.272 116.268 341.22 116.208 341.188 116.136C341.148 116.064 341.136 115.988 341.152 115.908C341.176 115.828 341.24 115.764 341.344 115.716L343.24 114.648H343.828V123.252H342.592Z" fill="#0047FF"/>
<path d="M339.991 171.64C339.591 170.12 339.071 168.747 338.431 167.52C337.818 166.32 337.151 165.2 336.431 164.16C335.685 163.12 334.885 162.12 334.031 161.16C333.205 160.2 332.378 159.213 331.551 158.2C330.911 157.48 330.271 156.707 329.631 155.88C329.018 155.053 328.458 154.173 327.951 153.24C327.445 152.333 327.031 151.387 326.711 150.4C326.418 149.413 326.271 148.4 326.271 147.36C326.271 146.427 326.445 145.56 326.791 144.76C327.138 143.933 327.631 143.227 328.271 142.64C328.885 142.053 329.605 141.587 330.431 141.24C331.285 140.893 332.205 140.72 333.191 140.72C334.098 140.72 334.951 140.893 335.751 141.24C336.551 141.56 337.245 141.96 337.831 142.44C338.445 142.893 338.938 143.36 339.311 143.84C339.685 144.32 339.911 144.693 339.991 144.96C340.045 144.667 340.258 144.28 340.631 143.8C341.005 143.32 341.498 142.853 342.111 142.4C342.698 141.92 343.391 141.52 344.191 141.2C344.991 140.853 345.858 140.68 346.791 140.68C347.751 140.68 348.645 140.853 349.471 141.2C350.325 141.547 351.058 142.013 351.671 142.6C352.311 143.213 352.805 143.92 353.151 144.72C353.525 145.52 353.711 146.387 353.711 147.32C353.711 148.333 353.551 149.333 353.231 150.32C352.911 151.307 352.498 152.267 351.991 153.2C351.485 154.107 350.911 154.987 350.271 155.84C349.658 156.667 349.045 157.44 348.431 158.16C347.578 159.173 346.725 160.16 345.871 161.12C345.045 162.08 344.258 163.08 343.511 164.12C342.765 165.16 342.085 166.28 341.471 167.48C340.858 168.707 340.365 170.093 339.991 171.64Z" fill="#FFC7C7"/>
<path d="M336.592 156.252V149.976C336.592 149.624 336.552 149.384 336.472 149.256C336.4 149.12 336.2 149.112 335.872 149.232C335.808 149.256 335.748 149.28 335.692 149.304C335.636 149.32 335.608 149.328 335.608 149.328C335.512 149.36 335.424 149.356 335.344 149.316C335.272 149.268 335.22 149.208 335.188 149.136C335.148 149.064 335.136 148.988 335.152 148.908C335.176 148.828 335.24 148.764 335.344 148.716L337.24 147.648H337.828V156.252H336.592ZM342.976 156.372C342.544 156.372 342.16 156.312 341.824 156.192C341.488 156.072 341.2 155.904 340.96 155.688C340.728 155.472 340.552 155.216 340.432 154.92C340.312 154.624 340.252 154.304 340.252 153.96C340.252 153.64 340.296 153.352 340.384 153.096C340.48 152.832 340.6 152.604 340.744 152.412C340.888 152.228 341.044 152.08 341.212 151.968C341.388 151.856 341.552 151.78 341.704 151.74C341.592 151.708 341.464 151.652 341.32 151.572C341.176 151.484 341.036 151.36 340.9 151.2C340.772 151.048 340.66 150.86 340.564 150.636C340.476 150.404 340.432 150.124 340.432 149.796C340.432 149.5 340.492 149.22 340.612 148.956C340.732 148.692 340.9 148.464 341.116 148.272C341.34 148.08 341.608 147.928 341.92 147.816C342.232 147.704 342.58 147.648 342.964 147.648C343.324 147.648 343.656 147.696 343.96 147.792C344.272 147.888 344.544 148.028 344.776 148.212C345.008 148.404 345.188 148.636 345.316 148.908C345.452 149.18 345.52 149.496 345.52 149.856C345.52 150.136 345.476 150.384 345.388 150.6C345.3 150.816 345.188 151.004 345.052 151.164C344.924 151.324 344.784 151.456 344.632 151.56C344.488 151.656 344.356 151.72 344.236 151.752C344.364 151.784 344.516 151.848 344.692 151.944C344.868 152.032 345.032 152.16 345.184 152.328C345.336 152.504 345.464 152.72 345.568 152.976C345.68 153.224 345.736 153.524 345.736 153.876C345.736 154.612 345.484 155.212 344.98 155.676C344.484 156.14 343.816 156.372 342.976 156.372ZM341.668 149.844C341.668 150.036 341.692 150.224 341.74 150.408C341.788 150.592 341.868 150.756 341.98 150.9C342.084 151.044 342.216 151.16 342.376 151.248C342.544 151.336 342.74 151.38 342.964 151.38C343.388 151.38 343.708 151.256 343.924 151.008C344.148 150.76 344.26 150.372 344.26 149.844C344.26 149.412 344.148 149.064 343.924 148.8C343.708 148.536 343.388 148.404 342.964 148.404C342.548 148.404 342.228 148.532 342.004 148.788C341.78 149.036 341.668 149.388 341.668 149.844ZM341.548 153.9C341.548 154.404 341.664 154.812 341.896 155.124C342.128 155.428 342.484 155.58 342.964 155.58C343.38 155.58 343.732 155.44 344.02 155.16C344.308 154.872 344.452 154.448 344.452 153.888C344.452 153.328 344.316 152.896 344.044 152.592C343.78 152.288 343.42 152.136 342.964 152.136C342.508 152.136 342.156 152.296 341.908 152.616C341.668 152.928 341.548 153.356 341.548 153.9Z" fill="#0047FF"/>
<path d="M334.372 190.252V189.592C334.404 189.56 334.44 189.528 334.48 189.496C334.52 189.456 334.56 189.416 334.6 189.376C334.648 189.336 334.692 189.292 334.732 189.244C334.78 189.196 334.836 189.144 334.9 189.088C335.06 188.936 335.244 188.744 335.452 188.512C335.668 188.272 335.888 188.012 336.112 187.732C336.336 187.46 336.556 187.18 336.772 186.892C336.988 186.604 337.18 186.324 337.348 186.052C337.54 185.74 337.708 185.404 337.852 185.044C337.996 184.676 338.068 184.292 338.068 183.892C338.068 183.508 337.956 183.188 337.732 182.932C337.508 182.668 337.14 182.536 336.628 182.536C336.404 182.536 336.208 182.58 336.04 182.668C335.872 182.748 335.732 182.852 335.62 182.98C335.5 183.1 335.408 183.236 335.344 183.388C335.28 183.54 335.244 183.684 335.236 183.82H334.204C334.212 183.572 334.268 183.32 334.372 183.064C334.476 182.8 334.632 182.564 334.84 182.356C335.04 182.148 335.296 181.98 335.608 181.852C335.928 181.716 336.304 181.648 336.736 181.648C337.576 181.648 338.224 181.872 338.68 182.32C339.144 182.768 339.376 183.392 339.376 184.192C339.376 184.504 339.292 184.856 339.124 185.248C338.964 185.64 338.76 186.004 338.512 186.34C338.288 186.644 338.036 186.96 337.756 187.288C337.484 187.616 337.22 187.928 336.964 188.224C336.7 188.512 336.464 188.764 336.256 188.98C336.048 189.196 335.9 189.34 335.812 189.412H337.744C338.088 189.412 338.352 189.36 338.536 189.256C338.72 189.152 338.856 188.884 338.944 188.452C338.96 188.372 339.004 188.316 339.076 188.284C339.148 188.244 339.22 188.228 339.292 188.236C339.372 188.244 339.44 188.272 339.496 188.32C339.56 188.36 339.592 188.412 339.592 188.476L339.472 190.252H334.372ZM341.956 182.692L341.812 185.188C341.86 185.156 341.996 185.1 342.22 185.02C342.444 184.932 342.7 184.884 342.988 184.876C343.38 184.868 343.74 184.928 344.068 185.056C344.404 185.176 344.692 185.356 344.932 185.596C345.172 185.828 345.356 186.108 345.484 186.436C345.62 186.764 345.688 187.12 345.688 187.504C345.688 187.976 345.6 188.392 345.424 188.752C345.248 189.104 345.012 189.4 344.716 189.64C344.42 189.88 344.084 190.06 343.708 190.18C343.332 190.308 342.94 190.372 342.532 190.372C342.076 190.372 341.672 190.332 341.32 190.252C340.976 190.172 340.672 190.04 340.408 189.856V188.92C340.696 189.112 341.028 189.248 341.404 189.328C341.788 189.408 342.128 189.448 342.424 189.448C343.048 189.448 343.528 189.26 343.864 188.884C344.208 188.5 344.38 188.02 344.38 187.444C344.38 186.996 344.244 186.604 343.972 186.268C343.708 185.924 343.36 185.752 342.928 185.752C342.664 185.752 342.404 185.812 342.148 185.932C341.892 186.052 341.692 186.22 341.548 186.436H340.624L340.852 181.768H345.112V182.692H341.956Z" fill="#0047FF"/>
<rect x="1.5" y="1.5" width="365" height="236" rx="8.5" stroke="#FFC7C7" stroke-width="3"/>
</svg>
